<svg width="1831" height="1315" viewBox="0 0 1831 1315" fill="none" xmlns="http://www.w3.org/2000/svg">
<path d="M529.391 106.966C203.89 185.966 66.3901 466.966 12.3908 687.966C-51.1091 1073.97 140.89 1156.47 327.892 1249.97C691.305 1431.67 948.89 1166.47 1202.89 1200.47C1535.39 1244.97 1659.92 1055.99 1779.89 852.966C1877.39 687.966 1856.39 254.466 1529.89 351.966C1203.39 449.466 877.365 22.5119 529.391 106.966Z" fill="#B3FFE8"/>
<path d="M711.385 279.464C705.441 281.214 699.631 282.325 694.653 283.024C691.959 283.043 689.347 282.735 686.859 282.014C706.554 250.34 731.455 222.497 760.754 199.387C772.124 190.42 784.264 182.419 797.057 175.64C803.183 172.393 814.613 165.53 822.432 166.798C822.56 166.969 822.677 167.149 822.807 167.321C823.352 168.039 824.446 168.273 825.635 168.175C832.495 174.736 812.7 201.757 809.81 205.2C793.487 224.636 772.001 240.763 751.455 255.472C742.191 262.104 726.758 273.646 711.385 279.464ZM860.482 74.5614C860.733 74.0252 860.991 73.4837 861.244 72.9367C857.119 76.2133 852.547 79.0326 848.04 81.4601C846.644 82.2113 838.684 83.1148 842.023 81.3132C848.394 77.8815 855.584 73.2442 860.901 67.366C848.163 70.9201 835.383 74.3382 822.589 77.6855C786.798 87.0581 750.927 96.1666 714.95 104.81C702.57 107.784 690.188 110.816 677.715 113.382C676.385 113.657 673.484 114.591 670.645 115.094C668.65 119.25 665.077 123.405 662.821 126.935C655.247 138.795 647.627 150.625 640.056 162.487C621.458 191.634 602.833 220.823 585.544 250.77C579.222 261.715 572.435 272.813 567.716 284.578C565.729 289.536 563.762 288.665 570.054 287.789C575.804 286.986 581.527 285.977 587.234 284.902C603.78 281.783 620.264 278.294 636.701 274.647C642.778 273.3 648.855 271.945 654.913 270.514C656.039 270.247 659.234 269.273 661.186 268.802C656.82 262.986 653.397 256.441 650.983 249.624C650.675 248.751 652.18 247.782 653.963 247.197C662.644 206.599 704.521 172.108 737.42 151.047C754.339 140.218 774.216 131.202 794.075 127.645C803.711 125.92 812.264 136.25 819.12 146.755C822.38 141.786 826.07 134.729 828.871 130.13C835.184 119.767 841.441 109.357 847.45 98.8118L853.494 87.9997C855.932 83.5801 858.341 79.1333 860.482 74.5614ZM694.591 105.414C711.502 101.479 728.372 97.3613 745.22 93.1703C770.45 86.8975 795.672 80.5457 820.823 73.9327L673.241 110.076C674.858 109.771 676.472 109.458 678.077 109.115C683.596 107.939 689.099 106.693 694.591 105.414ZM659.988 274.343L665.142 273.54C664.914 273.289 664.669 273.053 664.446 272.8C663.063 273.406 661.55 273.899 659.988 274.343ZM681.642 278.855C705.773 241.014 737.948 207.404 775.936 183.363C781.736 179.692 803.706 165.007 819.147 162.24C813.916 154.808 809.04 147.049 803.259 140.093C799.248 135.271 796.336 131.308 788.966 133.292C785.001 134.362 781.077 135.51 777.226 136.966C760.266 143.372 744.243 151.534 729.683 162.392C701.617 183.325 666.86 213.884 661.126 250.373C661.058 250.805 660.813 251.197 660.467 251.551C665.004 262.33 672.139 271.997 681.642 278.855ZM822.66 152.388L823.156 151.264C822.927 151.536 822.709 151.822 822.472 152.081C822.535 152.184 822.592 152.285 822.66 152.388ZM670.999 110.938C671.021 110.949 671.042 110.96 671.061 110.974C671.1 110.99 671.13 111.012 671.165 111.031C671.002 110.889 670.855 110.783 670.713 110.699L670.438 110.764C670.593 110.808 670.762 110.832 670.895 110.898C670.936 110.908 670.966 110.925 670.999 110.938ZM1348.12 1126.51L1348.01 1126.07C1347.54 1126.26 1347.06 1126.39 1346.57 1126.46L1348.12 1126.51ZM1187.22 720.953C1188.42 714.364 1189.55 708.29 1190.57 702.866C1188.21 709.226 1186.36 715.894 1184.87 722.654C1185.67 722.115 1186.44 721.516 1187.22 720.953ZM1183.77 727.906C1181.75 738.248 1180.4 748.649 1179.08 758.296C1177.6 769.07 1176.39 779.882 1175.36 790.713C1178.9 768.055 1182.76 745.666 1186.17 726.763C1185.83 726.967 1185.52 727.204 1185.18 727.405C1184.81 727.626 1184.31 727.789 1183.77 727.906ZM1217.21 936.731C1227.58 918.47 1238.08 900.272 1248.33 881.941C1251.87 875.621 1255.42 869.305 1258.76 862.88C1259.81 860.847 1260.88 858.817 1261.82 856.729C1263.84 852.269 1261.28 856.076 1266.37 856.204C1262.62 856.109 1262.23 853.164 1263.92 851.474C1253.37 833.181 1245.31 813.679 1237.03 794.279C1235.98 791.829 1239.67 789.992 1242.42 790.436C1257.03 778.794 1274.89 772.747 1291.11 763.731C1281.05 741.004 1268.94 718.202 1264.75 693.486C1247.71 711.229 1238.97 739.184 1231.44 761.515C1219.59 796.646 1210.45 832.683 1202.48 868.872C1194.92 903.203 1188.29 937.765 1182.93 972.512C1181.12 984.314 1178.79 996.558 1177.42 1008.78C1180.05 1003.75 1182.83 998.814 1185.4 993.995C1195.69 974.73 1206.42 955.712 1217.21 936.731ZM1342.81 1124.46C1341.76 1117.82 1340.81 1111.16 1339.93 1104.48C1338.94 1104.47 1338.38 1104.27 1338.91 1103.77C1339.19 1103.51 1339.46 1103.24 1339.73 1102.97C1333.35 1053.54 1331.25 1003.1 1328.16 953.554C1326.32 924.141 1324.47 894.674 1323.97 865.204C1323.89 860.183 1320.18 834.346 1330.93 835.957C1336.22 836.752 1332.33 842.578 1328.27 841.969C1333.94 842.82 1332.61 837.516 1332.18 844.323C1331.99 847.392 1331.91 850.47 1331.9 853.545C1331.86 863.234 1332.13 872.924 1332.49 882.607C1333.55 910.975 1335.23 939.321 1337.1 967.646C1339.92 1010.15 1341.92 1053.29 1347.06 1095.76C1379.84 1062.13 1402.84 1020.29 1432.11 983.74C1440.29 973.532 1448.62 963.441 1457.3 953.655C1462.58 947.701 1469.13 941.967 1472.73 934.755C1475.8 928.613 1477.58 922.073 1477.12 916.443C1475.78 911.865 1473.42 907.652 1469.22 906.074C1466.85 905.187 1464.49 903.766 1462.23 902.114C1462.05 902.076 1461.87 902.079 1461.69 902.033C1461.35 901.986 1461.05 901.913 1460.7 901.878C1460.41 901.848 1460.34 901.747 1460.42 901.603C1451.34 897.869 1443.87 881.505 1439.91 875.371C1439.72 875.072 1439.52 874.767 1439.33 874.468C1429.96 859.913 1414.36 835.541 1402.77 816.722C1401.52 814.904 1400.28 813.083 1399 811.287C1379.88 784.432 1350.56 764.104 1325.45 743.241C1314.02 733.744 1302.05 724.926 1290.63 715.415C1285.52 711.156 1279.76 706.731 1274.84 701.702C1280.24 722.695 1290.54 742.444 1299.23 762.144C1300.2 764.329 1296.13 766.183 1293.41 765.685C1277.79 773.843 1260.9 779.836 1247.37 791.405C1246.97 791.75 1246.04 792.071 1244.98 792.319C1253.57 812.447 1261.87 832.697 1273.16 851.504C1274.4 853.562 1272.47 855.426 1270.24 856.063C1268.9 860.92 1264.45 867.376 1263.41 869.289C1253.63 887.299 1243.36 905.04 1233.21 922.843C1220.8 944.631 1208.34 966.402 1196.43 988.478C1189.43 1001.48 1180.23 1015.5 1176.43 1029.96C1176.51 1030.24 1176.56 1030.54 1176.64 1030.83C1177.16 1032.71 1174.8 1034.21 1172.52 1034.53C1172.36 1034.55 1172.21 1034.57 1172.06 1034.58C1172 1034.58 1171.93 1034.59 1171.87 1034.6C1171.79 1034.6 1171.72 1034.61 1171.64 1034.61C1169.74 1035.05 1167.62 1034.68 1166.98 1032.98C1156.67 1005.32 1146.98 977.269 1139.73 948.634C1133.67 924.694 1129.69 900.275 1124 876.234C1121.9 867.332 1113.79 851.287 1118.89 842.722C1128.12 827.219 1137.52 811.717 1145.72 795.637C1145.85 795.37 1146.05 795.136 1146.27 794.915C1136.12 782.255 1130.87 764.422 1115.65 756.799C1114.62 756.282 1114.83 755.575 1115.62 754.913C1115.69 754.312 1116.06 753.634 1116.87 752.905C1143.12 729.302 1162.55 697.813 1193.11 679.152C1193.41 678.97 1193.75 678.839 1194.09 678.736C1186.36 675.157 1178.47 672.281 1170.49 669.804L1163.05 667.943C1163.05 667.943 1152.87 665.333 1138.44 661.596C1117.95 657.065 1097.32 653.078 1077.41 645.564C1076.46 645.311 1075.53 645.058 1074.6 644.811C1067.51 642.9 1060.75 639.939 1054.42 636.421C1031.18 626.332 1006.75 612.023 999.222 589.397C999.086 588.989 999.334 588.57 999.791 588.175C999.786 588.102 999.761 588.039 999.767 587.96C1000.4 578.321 997.696 562.662 989.945 556.022C988.432 554.727 987.129 554.09 985.988 553.932C983.517 556.852 980.992 561.038 978.801 565.109C978.523 566.606 978.327 567.947 978.175 568.872C974.795 588.984 973.026 609.397 971.298 629.704C967.066 679.285 965.542 728.938 962.198 778.562C959.898 812.735 957.011 847.681 960.818 881.902C961.362 885.955 961.915 889.977 962.467 893.909C967.23 923.208 978.064 949.636 993.385 975.007C1007.55 998.466 1023.4 1020.83 1039.64 1042.89C1040.65 1044.25 1045.99 1050.36 1050.28 1056.27C1052.48 1039 1054.64 1021.74 1056.41 1004.43C1059.11 977.965 1059.88 951.424 1063.18 925.023C1066.85 895.711 1071.27 866.469 1076.4 837.377C1079.9 817.503 1082.17 795.525 1089.83 776.679C1090.73 774.453 1098.4 773.58 1097.65 775.449C1089.62 795.209 1087.27 818.385 1083.68 839.236C1078.69 868.217 1074.18 897.319 1070.67 926.52C1067.44 953.383 1066.72 980.409 1063.8 1007.31C1059.77 1044.42 1054.28 1081.37 1050.47 1118.5C1050.47 1118.51 1050.47 1118.52 1050.46 1118.53L1344.76 1126.41C1343.77 1126.18 1342.98 1125.57 1342.81 1124.46ZM991.461 550.081C992.136 550.261 992.781 550.503 993.412 550.778C992.805 550.277 992.158 550.043 991.461 550.081ZM1124.11 754.445C1138.78 763.118 1143.9 780.598 1154.6 793.179C1155.24 793.922 1154.64 794.755 1153.56 795.427C1153.55 795.754 1153.47 796.11 1153.26 796.518C1145.06 812.599 1135.67 828.111 1126.43 843.607C1125.18 845.71 1125.07 845.89 1125.05 845.857C1125.7 848.459 1126.34 851.058 1126.97 853.66C1129.2 862.774 1131.4 871.89 1133.51 881.029C1138.87 904.242 1142.53 927.856 1148.76 950.86C1153.34 967.749 1158.59 984.429 1164.24 1000.98C1163.74 991.366 1163.68 981.726 1163.33 972.566C1161.99 937.291 1161.89 901.943 1162.99 866.66C1164.16 828.957 1166.22 791.054 1171.9 753.724C1175.11 732.541 1178.44 708.004 1189.3 688.721C1164.55 707.052 1146.64 733.561 1124.11 754.445ZM527.918 660.271C527.828 660.347 527.739 660.434 527.646 660.508C527.739 660.483 527.831 660.456 527.929 660.434C527.924 660.38 527.913 660.328 527.918 660.271ZM381.038 992.451C380.121 1005.14 379.03 1019.81 377.944 1033.41C379.961 1019.83 381.055 1006.13 381.038 992.451ZM690.481 808.389C715.861 899.36 727.904 993.878 741.209 1087.42L741.244 1087.04C741.244 1087.04 750.445 1081.63 759.29 1075.24C774.061 1057.46 779.983 1032.54 783.687 1010.35C792.57 957.106 790.341 901.986 785.812 848.445C782.988 815.035 775.64 781.102 776.135 747.552C776.421 728.167 777.488 703.781 787.949 686.005L781.406 688.62C779.61 690.925 778.168 693.693 776.769 696.417C773.884 702.036 771.051 707.555 766.425 711.964C764.531 713.771 756.74 713.812 760.09 710.622C761.845 708.952 763.246 707.057 764.501 705.065L748.047 710.127C748.047 710.127 747.215 710.182 745.854 710.258C741.671 712.612 737.379 714.626 732.78 715.015C717.434 716.31 704.733 708.63 692.607 699.982C664.435 679.887 633.56 667.216 601.674 654.94C607.696 664.571 617.548 672.765 625.554 679.405C636.404 688.408 647.785 696.814 659.819 704.181C662.522 704.143 665.012 705.974 662.029 708.418C650.871 717.548 643.877 730.864 634.521 741.657C634.42 741.772 634.298 741.875 634.178 741.976C648.487 757.341 659.161 777.749 678.973 786.667C679.256 786.792 678.788 787.225 677.96 787.715C677.906 787.799 677.86 787.881 677.772 787.973C650.504 817 629.416 852.215 617.134 890.118C616.348 892.551 608.507 893.629 609.283 891.237C609.501 890.559 609.745 889.89 609.971 889.215C608.915 889.16 607.938 888.793 607.353 887.936C597.997 874.185 588.739 859.938 577.042 848.01C570.1 840.932 562.562 834.414 554.294 828.919C548.533 825.09 541.454 822.086 536.346 817.37C530.357 811.84 529.777 806.394 532.136 798.674C536.853 783.251 540.298 767.563 543.808 751.846C542.845 752.026 541.928 752.015 541.288 751.702C529.869 746.11 516.856 744.967 506.898 736.604C506.34 736.136 506.563 735.287 506.83 734.759C517.96 712.908 525.246 687.871 524.631 663.199C524.628 663.074 524.658 662.954 524.685 662.835C509.848 673.935 491.827 679.443 476.816 690.462C456.462 705.406 442.801 733.763 433.439 756.72C417.968 794.646 406.851 835.867 378.347 866.592C378.094 866.867 377.729 867.098 377.307 867.291C377.979 867.789 378.175 868.344 378.015 868.891C384.609 879.268 392.438 888.959 396.028 900.903C396.572 902.719 388.715 904.936 388.141 903.015C384.519 890.957 376.57 881.195 369.94 870.704C366.911 868.802 358.725 863.919 356.469 866.222L367.056 889.746L368.697 896.718C370.83 901.197 372.831 905.745 374.545 910.382C382.464 931.759 387.142 954.736 388.353 977.511C390.702 1021.61 382.113 1064.2 366.479 1105.31C365.915 1106.8 363.499 1107.66 361.534 1107.58C354.853 1121.23 348.006 1133.31 348.006 1133.31L433.904 1132.13C455.093 1028.7 471.697 924.386 484.038 819.533C484.324 817.1 492.053 816.341 491.925 817.421C479.502 922.949 462.803 1027.93 441.437 1132.03L738.901 1127.92C723.07 1021.96 711.458 913.944 682.6 810.509C682.089 808.691 689.964 806.541 690.481 808.389ZM623.535 847.267C623.121 849.73 622.577 852.149 621.924 854.528C621.94 856.25 621.946 857.883 621.943 859.432C634.186 833.519 650.523 809.429 670.003 788.583C650.542 779.001 639.937 758.187 625.282 743.097C624.757 742.555 625.783 741.72 627.236 741.053C627.293 740.629 627.511 740.147 627.99 739.595C636.728 729.514 643.526 717.712 653.171 708.47C639.509 700.072 626.316 690.449 614.434 679.688C608.739 674.528 602.384 668.857 597.358 662.405C602.972 681.201 612.078 698.673 616.892 717.679C620.971 733.784 622.985 750.445 624.253 766.986C625.693 785.752 626.414 804.661 625.516 823.474C625.35 826.925 625.198 830.481 624.966 834.066C625.345 838.229 625.584 840.755 625.584 840.755L623.535 847.267ZM618.873 866.295L618.299 863.933L616.715 868.97C616.661 869.841 616.614 870.715 616.544 871.583C617.278 869.803 618.1 868.059 618.873 866.295ZM521.003 720.322C519.504 724.243 517.835 728.173 515.928 731.915C513.571 736.544 526.669 740.109 528.977 740.825C534.447 742.523 539.805 744.205 545.011 746.499C545.349 745.007 545.684 743.513 546.024 742.019C546.862 738.37 554.953 737.48 554.033 741.491C550.008 759.055 547.017 777.071 541.449 794.219C540.072 798.459 536.529 806.065 540.088 810.27C544.524 815.514 551.175 818.143 556.781 821.868C578.324 836.185 593.744 854.729 608.281 875.33C608.543 872.905 608.741 870.478 608.853 868.05C608.355 867.604 608.047 866.978 608.077 866.129C608.175 863.111 608.17 860.107 608.118 857.11C606.97 845.161 605.41 831.287 603.407 818.27C591.493 764.174 559.402 713.973 532.523 666.519C532.289 685.017 527.583 703.084 521.003 720.322ZM456.963 501.167C448.785 504.04 440.52 506.819 432.484 510.076L457.409 504.141C457.243 503.224 457.077 502.307 456.952 501.376C456.944 501.305 456.96 501.237 456.963 501.167ZM651.557 432.573C607.255 430.941 562.905 430.908 518.584 429.95C497.936 443.799 482.223 463.347 462.242 478.029C446.314 489.734 429.615 500.53 414.928 513.737C428.143 506.906 442.482 502.416 456.481 497.299C478.696 489.181 500.799 480.767 523.101 472.88C565.414 457.923 608.406 444.915 651.557 432.573ZM487.143 447.96L440.719 486.359C446.183 482.457 451.653 478.554 457.028 474.505C467.756 466.428 477.338 457.058 487.143 447.96ZM526.149 475.866C505.467 483.224 484.939 490.988 464.327 498.527C464.61 498.704 464.798 498.943 464.839 499.264C465.758 506.174 467.881 512.716 470.279 519.19L474.415 526.22C475.139 526.032 475.849 525.817 476.568 525.621L603.9 474.426C599.331 468.077 596.612 460.721 592.865 453.874C570.481 460.77 548.206 468.02 526.149 475.866ZM513.029 426.546L512.21 427.223C512.428 427.074 512.632 426.905 512.852 426.758C512.904 426.687 512.978 426.619 513.029 426.546Z" fill="#00FAAF"/>
<path d="M614.562 529.075C617.646 534.654 621.837 541.427 621.32 548.076C620.759 555.306 614.723 558.844 608.257 560.45C603.399 561.655 601.981 556.482 606.869 555.271C618.658 552.345 611.136 539.389 607.326 532.49C605.378 528.958 612.927 526.114 614.562 529.075ZM571.18 535.737C574.843 536.406 579.266 531.301 573.997 530.34C567.134 529.088 560.216 530.92 555.785 536.526C552.721 540.407 560.246 541.196 562.311 538.578C564.834 535.386 567.289 535.026 571.18 535.737ZM628.085 514.798C626.88 516.08 624.531 516.73 622.827 516.758C622.302 516.763 622.114 516.749 621.807 516.793C621.238 517.139 620.754 518.159 620.492 518.864C619.943 520.342 617.221 520.948 615.907 521.163C615.33 521.259 612.135 521.613 612.682 520.143C614.592 515.019 621.222 513.296 626.142 513.222C626.98 513.206 629.361 513.44 628.085 514.798ZM621.69 516.807C621.695 516.807 621.695 516.807 621.701 516.807C621.695 516.807 621.695 516.807 621.69 516.807ZM607.699 505.692C609.196 505.3 610.665 504.781 612.064 504.128C612.611 503.872 614.843 502.565 613.074 502.236C611.321 501.91 609.144 502.552 607.574 503.287C606.844 503.627 606.102 503.736 605.171 503.981C603.674 504.372 602.205 504.889 600.803 505.543C600.253 505.798 598.024 507.105 599.793 507.434C601.549 507.761 603.72 507.116 605.293 506.384C606.02 506.043 606.768 505.934 607.699 505.692ZM563.691 516.445C565.321 516.915 567.73 516.042 569.191 515.389C569.885 515.078 571.853 514.003 570.209 513.53C564.513 511.886 557.505 514.156 552.675 517.226C551.456 518.001 551.556 518.747 553.083 518.758C554.904 518.769 557.111 518.246 558.659 517.264C560.507 516.088 561.547 515.827 563.691 516.445ZM586.336 573.953C580.477 572.897 576.517 569.523 575.401 563.571C574.961 561.217 567.033 563.117 567.515 565.683C568.884 572.995 574.438 576.612 581.408 577.867C583.223 578.193 585.552 577.508 586.984 576.373C588.274 575.349 587.89 574.234 586.336 573.953ZM433.314 1135.05C432.927 1136.93 440.692 1135.66 441.1 1133.68C441.214 1133.13 441.318 1132.57 441.432 1132.02L433.896 1132.13C433.698 1133.1 433.515 1134.08 433.314 1135.05ZM484.03 819.528C471.689 924.381 455.085 1028.69 433.896 1132.12L441.432 1132.02C462.798 1027.93 479.494 922.944 491.919 817.413C492.047 816.336 484.319 817.095 484.03 819.528ZM1180.85 551.077C1174.01 550.302 1165.16 551.959 1161.54 558.586C1157.79 565.457 1164.62 570.407 1170.58 572.021C1172.55 572.549 1174.81 572.174 1176.16 570.527C1177.27 569.183 1176.95 567.052 1175.1 566.551C1172.54 565.86 1167.33 564.137 1168.68 560.458C1169.99 556.907 1175.09 556.651 1178.17 556.999C1180.08 557.217 1182.45 556.411 1183.3 554.547C1184.11 552.754 1182.57 551.27 1180.85 551.077ZM1206.42 596.01C1204.4 597.921 1202.63 598.405 1199.92 597.804C1195.97 596.928 1192.01 602.504 1197.22 603.66C1202.33 604.795 1207.87 603.345 1211.68 599.733C1215.56 596.068 1209.37 593.218 1206.42 596.01ZM1229.89 559.857C1230.33 562.945 1238.25 561.048 1237.77 557.745C1236.36 547.915 1226.57 545.852 1218.09 546.794C1216.51 546.971 1214 547.847 1213.66 549.687C1213.32 551.545 1215.92 551.891 1217.17 551.752C1223.49 551.05 1228.89 552.944 1229.89 559.857ZM1232.37 526.658C1237.65 527.627 1242.45 530.005 1245.41 534.624C1246.85 536.863 1254.52 534.292 1252.73 531.521C1249.31 526.193 1243.24 523.447 1237.19 522.334C1235.32 521.991 1233.05 522.543 1231.61 523.828C1230.4 524.919 1230.71 526.353 1232.37 526.658ZM1258.98 622.054C1260.84 622.106 1263.03 621.409 1264.18 619.888C1265.49 618.174 1267.97 614.521 1270.42 614.432C1272.23 614.364 1274.53 613.89 1275.62 612.265C1276.64 610.75 1274.77 609.852 1273.47 609.901C1266.29 610.173 1261.05 614.154 1256.83 619.689C1255.67 621.219 1257.82 622.022 1258.98 622.054ZM1346.57 1126.46L1344.77 1126.42C1345.33 1126.54 1345.94 1126.56 1346.57 1126.46ZM487.143 447.96L512.213 427.223C503.211 433.387 495.098 440.58 487.143 447.96ZM1548.62 1117.92C1548.86 1121.69 1540.87 1122.76 1540.61 1118.41C1536.73 1055.56 1499.43 1001.19 1471 946.917C1463.09 956.586 1453.55 965.363 1446.05 974.602C1436.96 985.811 1428.44 997.535 1420.07 1009.4C1420.18 1009.71 1420.23 1010.05 1420.17 1010.46C1417.65 1028.55 1433.39 1049.95 1442.06 1064.6C1451.65 1080.82 1462.67 1096.69 1470.15 1114.05C1471.6 1117.42 1463.78 1119.68 1462.26 1116.16C1453.63 1096.13 1440.32 1078.12 1429.67 1059.14C1423.5 1048.15 1414.33 1034.12 1412.31 1020.47C1392.48 1048.9 1372.78 1077.5 1347.73 1101.35C1348.62 1108.38 1349.6 1115.38 1350.7 1122.35C1350.96 1124.06 1349.64 1125.4 1348.01 1126.07L1342.68 1104.73L1478.75 931.922C1478.75 931.922 1479.25 923.717 1477.12 916.437C1476.57 909.645 1472.73 904.172 1463.81 902.351C1463.28 902.332 1462.75 902.221 1462.23 902.109C1454.12 896.165 1447.45 887.019 1447.45 887.019C1447.45 887.019 1444.25 882.088 1439.34 874.465C1427.04 855.323 1415.66 835.486 1402.77 816.719C1396.33 806.253 1391.12 797.495 1388.94 793.13C1380.77 776.802 1269.19 689.717 1269.19 689.717L1258.31 695.159L1227.01 761.834C1227.01 761.834 1202.52 851.64 1199.8 855.723C1197.08 859.805 1171.22 1024.45 1171.22 1024.45C1171.22 1024.45 1161.7 949.611 1164.42 884.297C1165.43 860.036 1170.01 825.077 1175.36 790.714C1172.99 815.712 1171.66 840.823 1170.94 865.903C1169.97 899.262 1169.92 932.676 1171.11 966.032C1171.97 956.836 1172.54 947.586 1173.59 938.761C1177.86 902.879 1182.25 867.008 1187.22 831.216C1191.83 798.067 1196.36 764.686 1203.74 732.013C1205.46 724.374 1207.12 716.37 1210.03 709.003C1202.19 715.083 1194.67 721.584 1186.17 726.76C1186.53 724.785 1186.88 722.844 1187.22 720.948C1194.47 715.769 1201.18 709.839 1208.38 704.603C1209.52 703.781 1210.96 703.212 1212.41 703.079C1208.64 697.538 1204.75 691.967 1200.41 686.865C1199.56 687.036 1198.72 687.118 1198.04 687.112C1195.06 692.019 1192.62 697.326 1190.56 702.861C1193.64 686.462 1195.72 676.104 1195.72 676.104L1170.51 669.801C1159.94 666.522 1149.22 663.972 1138.46 661.594C1120.82 657.024 1096.85 650.773 1077.42 645.562C1077.38 645.546 1077.34 645.535 1077.3 645.518C1070.31 642.876 1062.44 639.896 1054.43 636.418C1029.2 622.394 1010.93 599.358 1006.58 597.183C1001.14 594.462 1001.14 574.051 995.693 555.002C995.075 552.846 994.297 551.507 993.412 550.77C1004.86 555.772 1008.35 575.741 1007.62 586.801C1007.6 587.081 1007.46 587.348 1007.24 587.601C1018.1 619.436 1063.66 635.675 1092.43 645.339C1127.25 657.03 1163.26 659.191 1197.17 673.96C1197.8 662.274 1197.52 649.081 1187.98 643.415C1170.93 633.286 1146.97 629.473 1138.56 608.891C1134.25 598.343 1135.63 589.985 1140.59 579.995C1147.5 566.064 1154.25 551.924 1162.58 538.763C1171.56 524.563 1180.58 506.296 1193.84 495.12C1167.1 481.181 1149.52 461.524 1176.26 437.875C1187.98 427.509 1205.96 428.279 1219.81 432.881C1240.51 439.753 1250.61 462.419 1270.39 470.749C1289.75 478.897 1321.91 478.718 1319.84 507.497C1320.44 507.48 1320.98 507.556 1321.37 507.782C1335.17 515.762 1343.9 530.397 1346.37 546.048C1349.07 563.111 1345.46 575.986 1337.07 590.94C1319.73 621.867 1291.03 648.795 1257.2 660.432L1255.98 661.011C1256.28 667.3 1257.89 673.236 1260.2 675.789C1263.04 678.929 1266.87 682.208 1268.64 686.222C1270.23 686.013 1271.69 686.399 1272.01 687.602C1273.14 687.594 1274.1 687.891 1274.5 688.655C1279.93 699.157 1291.66 707.313 1300.62 714.571C1311.28 723.201 1322.36 731.335 1332.8 740.226C1356.16 760.13 1384.43 778.862 1402.98 803.648C1415.96 820.995 1426.8 839.966 1438.31 858.289C1444.23 867.705 1450.11 877.2 1456.59 886.246C1458.65 889.131 1460.71 892.067 1463.08 894.718C1466.03 898.03 1468.3 897.442 1463.87 898.939C1465.41 898.421 1467.21 898.598 1468.29 899.11C1482.1 900.925 1488.54 910.692 1484.03 924.623C1482.26 930.088 1479.53 935.133 1476.26 939.918C1476.45 940.097 1476.61 940.301 1476.74 940.549C1505.9 996.868 1544.6 1052.71 1548.62 1117.92ZM1204.6 435.047C1200.28 434.462 1195.96 434.566 1191.91 435.543C1196 434.889 1200.33 434.751 1204.6 435.047ZM1217.42 696.36C1225.42 686.693 1237.38 679.511 1247.96 674.273C1248.16 674.172 1248.37 674.093 1248.57 674.022C1248.11 672.985 1247.83 671.908 1247.84 670.748C1247.93 661.7 1247.72 645.687 1256.47 639.7C1265.29 633.664 1280.43 636.872 1284.12 623.864C1286.81 614.342 1279.37 592.658 1266.53 605.203C1265.55 606.161 1262.96 606.632 1261.18 606.404C1261.05 606.42 1260.91 606.436 1260.79 606.436C1259.67 606.436 1258.55 606.436 1257.44 606.436C1257.15 606.597 1256.95 606.714 1256.95 606.714C1256.95 606.714 1256.93 606.61 1256.91 606.436C1256.16 606.436 1254.99 606.431 1254.66 605.595C1245.24 581.987 1254.91 557.769 1277.13 547.969C1263.77 546.489 1252.97 529.145 1258.59 516.905C1244.67 514.287 1219.19 507.467 1198.03 497.229C1193.05 502.214 1188.92 508.406 1185.11 514.463C1185.69 514.376 1186.27 514.316 1186.83 514.316C1189.06 514.316 1191.28 514.316 1193.5 514.316C1195.04 514.316 1195.19 515.247 1193.96 516.017C1192.34 517.027 1190.27 517.511 1188.38 517.511C1186.65 517.511 1184.92 517.511 1183.19 517.511C1182.34 518.867 1181.5 520.203 1180.66 521.498C1178.39 525.02 1176.09 528.528 1173.82 532.046C1178.89 531.559 1183.42 533.086 1185.97 537.998C1186.88 539.745 1185.75 541.277 1184.11 542.064C1182.77 542.709 1179.65 543.199 1178.75 541.473C1177.62 539.288 1176.03 537.233 1173.56 537.677C1172.62 537.846 1171.34 537.93 1170.33 537.549C1167.87 541.487 1165.47 545.463 1163.24 549.556C1152.02 570.203 1132.37 596.895 1154.03 617.594C1163.27 626.417 1174.01 630.7 1185.48 635.778C1190.78 638.124 1196.25 640.435 1200.23 644.789C1207.37 652.613 1205.24 669.001 1204.58 680.118C1204.58 680.124 1204.59 680.129 1204.6 680.135C1209.29 685.063 1213.48 690.647 1217.42 696.36ZM1232.53 737.08C1231.45 736.993 1230.63 736.558 1230.55 735.679C1229.81 726.967 1222.74 717.655 1217.28 710.105C1217.17 710.418 1217.04 710.723 1216.94 711.039C1213.55 721.462 1211.26 732.25 1209.14 742.994C1202.71 775.672 1198.01 808.705 1193.56 841.702C1189.66 870.647 1186.09 899.635 1182.62 928.635C1186.8 905.829 1191.41 883.1 1196.57 860.501C1204.79 824.579 1213.91 788.659 1226.38 753.95C1228.33 748.532 1230.35 742.833 1232.53 737.08ZM1260.96 688.925C1259.23 684.788 1254.41 681.471 1251.11 677.764C1239.82 683.351 1228.14 691.162 1221.24 702.026C1222.46 703.873 1223.67 705.716 1224.86 707.536C1228.41 712.949 1233.85 719.851 1236.67 726.755C1242.69 712.598 1250.21 698.912 1260.96 688.925ZM377.944 1033.41C374.317 1057.87 367.695 1081.95 359.025 1104.76C358.301 1106.66 359.727 1107.51 361.526 1107.58C367.127 1096.14 372.61 1083.6 373.851 1076.16C374.844 1070.19 376.39 1052.91 377.944 1033.41ZM1043.32 1118.34L1050.48 1118.53C1050.19 1120.65 1042.41 1122.23 1042.67 1119.73C1044.41 1102.74 1046.53 1085.79 1048.69 1068.84C1048.28 1068.58 1048.25 1068.16 1048.85 1067.56C1048.86 1067.51 1048.87 1067.46 1048.87 1067.41C1047.34 1068.23 1046.66 1065.47 1045.17 1063.38C1015.01 1021.27 977.849 978.469 962.054 928.27C941.39 862.594 954.025 788.928 957.305 721.503C957.95 708.239 958.625 694.931 959.397 681.612C943.711 675.089 932.739 658.154 925.293 643.668C913.302 620.34 904.556 595.243 896.206 570.432C895.855 569.384 896.291 568.462 897.102 567.768C892.718 566.094 888.336 564.396 883.96 562.67C883.386 563.326 882.754 563.939 882.368 564.415C880.346 566.916 878.305 569.409 876.248 571.885C874.168 574.383 871.752 578.204 868.72 580.433C868.723 580.455 868.736 580.474 868.739 580.496C876.188 628.079 861.078 680.159 843.245 723.914C835.639 742.577 828.215 768.537 808.588 777.751C804.664 779.597 794.05 782.408 786.975 780.955C787.799 788.743 788.733 796.586 789.612 804.536C793.375 838.648 796.29 872.9 797.136 907.223C798.184 949.745 797.806 994.444 785.788 1035.64C779.736 1056.38 766.806 1088.48 741.938 1092.48C743.563 1103.85 745.204 1115.21 746.899 1126.55C747.207 1128.62 739.26 1130.32 739.012 1128.66C738.974 1128.41 738.942 1128.17 738.904 1127.92L742.61 1127.87L738.528 1116.98L741.214 1087.43C741.222 1087.49 741.233 1087.55 741.241 1087.61C742.537 1087.34 744.474 1086.85 745.868 1086.21C750.655 1084.02 754.742 1080.54 758.187 1076.59C758.571 1076.15 758.922 1075.69 759.292 1075.24C764.471 1071.5 769.53 1067.43 772.543 1063.91C780.707 1054.39 791.593 964.582 792.954 944.171C794.314 923.761 790.232 802.658 784.789 774.083C779.346 745.508 788.871 685.637 788.871 685.637L787.952 686.005C788.259 685.482 788.548 684.943 788.871 684.429C788.569 684.192 788.409 683.898 788.436 683.544C785.486 684.361 783.263 686.244 781.409 688.62L775.264 691.077L765.739 704.684L764.504 705.065C765.22 703.931 765.9 702.769 766.531 701.579C766.469 701.585 766.39 701.598 766.338 701.598C759.238 701.655 752.693 706.413 745.859 710.258C740.387 710.563 726.015 711.218 719.478 710.127C711.314 708.767 694.986 695.159 663.689 680.192C632.393 665.224 605.179 655.699 605.179 655.699L592.933 650.256L606.54 704.684C606.54 704.684 608.804 710.119 611.482 718.123C610.788 718.643 609.961 719.19 608.986 719.726C608.951 719.606 608.926 719.486 608.894 719.366C608.812 719.568 608.679 719.772 608.518 719.976C605.604 721.489 601.516 722.812 596.1 722.812C583.4 722.812 568.886 720.997 568.886 720.997L581.587 742.768L603.358 802.639L618.106 863.114C617.746 863.315 617.355 863.503 616.916 863.653C616.908 865.422 616.829 867.196 616.723 868.965L610.622 888.379C610.622 888.379 609.827 874.879 608.124 857.105C607.884 843.933 606.213 830.99 603.413 818.265C601.638 806.745 599.516 795.901 597.015 787.687C587.49 756.391 531.701 661.142 531.701 661.142L505.848 650.256L440.534 715.57C440.534 715.57 387.466 818.984 387.466 824.426C387.466 829.869 354.809 862.526 354.809 862.526L356.469 866.216C355.884 866.812 355.675 867.865 356.083 869.61C357.411 875.289 360.247 880.185 362.955 885.321C364.933 889.068 366.863 892.864 368.691 896.712L383.379 959.136C383.379 959.136 382.402 973.603 381.041 992.449C381.03 984.173 380.636 975.911 379.778 967.692C345.497 983.651 312.236 941.172 296.364 915.441C276.136 882.64 263.207 845.308 241.77 813.304C241.319 812.629 241.384 811.971 241.749 811.38C221.528 798.625 203.292 783.975 187.598 765.84C179.831 756.862 167.002 746.937 163.935 734.966C161.949 727.218 167.057 720.763 175.088 720.869C178.449 720.912 181.671 722.357 184.618 724.526C184.349 720.428 184.789 716.182 186.205 711.82C186.92 709.613 190.646 708.954 192.578 709.243C198.078 710.057 202.634 712.465 206.531 715.782C204.871 708.764 204.392 701.465 205.314 693.508C205.584 691.175 208.602 689.956 210.654 690.272C218.026 691.409 223.414 696.243 227.695 702.45C227.624 696.92 228.416 691.385 230.362 685.996C231.189 683.716 235.318 682.715 237.171 684.173C250.517 694.664 259.544 712.606 262.309 729.536C263.308 727.09 263.988 724.494 264.118 721.541C264.029 721.345 263.988 721.119 264.053 720.844C264.07 720.779 264.086 720.708 264.099 720.643C264.11 719.777 264.129 718.92 264.042 717.987C263.988 717.399 264.421 716.863 265.098 716.414C266.72 709.961 269.327 702.635 276.025 700.839C280.311 699.691 284.271 701.201 286.061 705.446C290.421 715.78 288.108 726.537 286.173 737.151C283.068 754.203 280.899 770.891 288.853 786.947C289.017 787.271 288.954 787.606 288.766 787.93C296.218 795.618 304.129 803.235 311.708 811.165C301.87 786.174 296.781 759.679 301.317 733.599C301.407 733.088 301.519 732.59 301.614 732.081C302.469 722.91 304.515 714.884 308.546 710.125C323.81 676.649 357.008 656.69 393.149 645.986C393.217 645.565 393.304 645.067 393.399 644.49C392.427 644.446 391.676 644.16 391.527 643.523C383.417 609.321 420.254 571.417 454.195 580.373C452.913 563.411 454.375 543.076 466.97 531.576C466.504 531.401 466.145 531.124 465.987 530.705C462.675 521.966 459.075 513.345 457.42 504.136L460.947 503.295L470.292 519.182C471.218 521.678 472.178 524.165 473.136 526.655C473.384 526.56 473.585 526.443 473.874 526.367C474.059 526.318 474.244 526.261 474.426 526.212L474.554 526.427L476.579 525.613C520.652 513.593 560.494 490.346 603.614 475.599C603.979 475.474 604.278 475.444 604.597 475.387C604.354 475.071 604.142 474.739 603.911 474.418L606.542 473.359L595.657 450.227L669.135 429.817L514.015 425.735L513.043 426.537C513.889 425.403 515.362 424.36 516.891 424.143C516.918 424.126 516.945 424.107 516.97 424.091C518.657 423.046 521.27 423.31 522.701 424.202C572.125 425.25 621.592 425.166 670.983 427.484C676.319 427.735 672.107 433.433 668.261 433.251C666.745 433.18 665.23 433.131 663.714 433.066C642.65 439.031 621.6 445.119 600.64 451.493C603.152 456.228 605.252 461.176 607.843 465.843C608.488 465.908 609.005 466.118 609.258 466.545C620.307 485.257 632.725 503.306 641.708 523.164C649.62 540.657 658.554 563.639 651.122 582.85C645.899 596.353 635.896 604.254 623.271 610.589C623.083 610.684 622.906 610.78 622.721 610.872C623.576 610.888 624.327 611.095 624.768 611.577C635.368 623.148 635.041 640.38 625.922 652.733C625.124 653.81 622.659 654.491 620.721 654.51C620.367 655.256 620.149 655.696 620.149 655.696L616.546 655.021C643.077 665.082 669.54 675.696 692.803 692.155C699.895 697.173 706.922 702.896 714.773 706.712C728.549 713.404 739.976 711.175 752.666 703.914C757.613 701.081 762.591 699.22 768.063 698.632C769.982 694.817 771.86 690.969 774.584 687.659C779.385 681.833 785.592 678.954 792.875 678.613C805.039 665.14 809.219 644.152 811.582 626.928C814.112 608.461 815.783 588.483 811.214 570.195C811.132 569.871 811.157 569.566 811.228 569.27C807.274 559.105 800.293 550.092 795.686 540.224C794.116 536.858 791.933 532.28 790.621 527.57C790.159 527.553 789.75 527.485 789.424 527.368C789.443 527.428 789.459 527.491 789.476 527.553C784.193 524.53 777.349 523.093 771.642 521.052C767.832 519.689 762.308 518.622 758.304 516.507C756.563 516.869 754.805 516.711 754.32 515.585C748.899 502.971 759.355 481.722 770.899 476.331C789.886 467.465 814.05 478.759 831.633 487.111C839.628 482.813 849.221 482.574 857.663 487.785C858.626 488.381 858.942 489.089 858.833 489.788C862.722 490.256 866.592 491.574 870.163 493.83C870.277 493.9 870.258 494.023 870.149 494.17C874.103 494.921 877.401 497.784 878.901 503.779C878.931 503.902 878.928 504.019 878.942 504.138C880.724 503.36 882.556 502.783 884.376 502.473C882.665 486.896 887.101 471.482 883.247 456.057C883.242 456.038 883.247 456.018 883.244 455.999C872.74 441.342 866.064 423.53 860.602 406.532C854.863 388.677 849.602 370.019 848.854 351.176C848.574 344.204 849.801 332.105 859.579 332.605C858.904 327.718 858.882 322.74 860.025 317.61C861.285 311.953 863.234 306.39 869.624 305.364C870.851 305.168 871.918 305.244 872.865 305.514C873.668 301.143 875.856 297.858 880.109 296.397C887.525 293.855 892.962 297.257 897.143 303.459C897.202 303.288 897.235 303.108 897.303 302.939C899.597 296.982 908.455 295.513 913.158 299.235C922.898 306.948 927.16 322.569 930.714 333.833C933.969 344.152 936.851 354.627 939.126 365.216C943.142 356.458 945.918 347.007 951.065 338.818C953.59 334.799 956.57 331.207 961.537 330.532C967.05 329.783 968.743 335.357 969.717 339.646C969.913 340.522 969.369 341.308 968.495 341.918C963.591 360.173 965.559 379.509 959.939 397.492C955.111 412.955 943.02 424.385 941.94 441.211C942.179 441.328 942.383 441.481 942.503 441.696C942.696 442.044 942.816 442.469 942.982 442.85C943.608 443.173 943.885 443.641 943.526 444.167C944.552 447.264 944.947 450.919 945.652 453.83C947.981 463.448 950.392 473.052 953.119 482.569C959.928 506.343 968 529.826 979.416 551.798C981.041 550.857 982.93 550.152 985.21 549.804C987.501 549.455 989.583 549.578 991.477 550.084C989.817 550.176 987.931 551.67 986.013 553.94C984.195 553.687 982.812 554.675 981.757 556.278C981.827 556.408 981.893 556.545 981.963 556.675C982.184 557.078 981.65 557.62 980.774 558.12C979.838 560.262 979.242 562.869 978.826 565.117C975.247 571.782 972.575 578.142 972.575 578.142L964.41 663.866C964.41 663.866 957.607 790.412 954.885 812.183C953.582 822.614 956.965 853.042 960.84 881.908C961.221 885.307 961.64 888.703 962.157 892.086C962.25 892.704 962.388 893.3 962.489 893.915C966.212 920.419 969.85 942.81 969.85 942.81L1050.13 1068L1043.32 1118.34ZM340.136 849.398C340.462 850.07 340.789 850.742 341.099 851.42C342.239 853.287 343.382 855.154 344.552 856.991L340.136 849.398ZM331.389 834.368C331.601 834.768 331.822 835.165 332.034 835.565C332.143 835.723 332.252 835.875 332.358 836.03L331.389 834.368ZM248.427 807.877C259.489 804.263 267.343 795.367 276.754 788.885C277.32 788.493 278.063 788.262 278.841 788.153C278.485 787.57 278.909 786.923 279.734 786.351C272.506 769.364 275.842 751.83 279.084 734.013C280.501 726.211 282.216 717.157 278.999 709.528C274.969 699.976 273.159 713.907 272.046 719.165C271.937 726.208 269.232 731.482 264.894 737.57C256.501 749.354 255.965 761.57 256.126 775.67C256.156 778.195 248.258 779.491 248.239 777.781C248.103 765.851 247.401 753.338 254.305 742.866C255.429 741.162 256.526 739.562 257.582 737.986C256.245 737.94 255.143 737.355 255.013 736.04C253.535 721.165 246.941 704.611 236.221 693.434C234.09 705.762 237.732 718.904 243.381 729.849C244.892 732.772 240.611 735.197 237.9 734.585C236.289 735.009 234.591 734.742 233.919 733.365C229.276 723.854 223.689 704.233 212.94 697.998C212.39 711.257 215.974 722.526 223.069 734.342C223.931 735.782 223.284 737.124 222.075 738.033C222.141 738.169 222.217 738.305 222.282 738.438C223.349 740.542 215.705 743.135 214.396 740.55C209.562 731.003 203.344 719.258 193.041 714.871C189.761 732.209 201.42 747.688 215.854 756.832C218.916 758.77 211.59 761.81 209.546 760.514C202.675 756.163 196.369 750.494 191.792 743.914C190.79 743.856 189.944 743.53 189.582 742.806C187.388 738.414 184.213 734.168 180.56 730.87C176.693 727.381 168.249 724.017 171.822 732.851C175.433 741.777 182.414 749.101 188.858 756.086C207.227 776.013 225.406 793.334 248.427 807.877ZM351.579 880.964C350.504 879.002 349.573 876.96 348.942 874.873C347.932 874.911 347.064 874.704 346.664 874.136C343.205 869.202 339.771 864.085 336.418 858.806C335.792 858.667 335.308 858.381 335.109 857.886C334.576 856.55 333.985 855.249 333.389 853.946C330.113 848.595 326.939 843.098 323.935 837.473C312.192 820.524 296.223 806.106 281.979 791.476C281.903 791.533 281.846 791.59 281.759 791.65C271.164 798.946 262.644 807.951 250.313 812.085C267.55 838.412 279.587 868.549 294.511 896.179C302.022 910.088 310.478 923.053 320.776 935.101C333.071 949.486 355.906 975.356 377.163 963.754C377.735 963.444 378.475 963.273 379.253 963.21C377.479 948.914 374.357 934.769 369.657 920.957C364.917 907.016 358.638 893.879 351.579 880.964ZM640.974 589.667C658.04 553.23 627.511 510.341 607.239 478.228C606.774 478.873 605.976 479.488 604.754 479.907C578.101 489.021 552.737 501.371 526.841 512.324C526.939 512.469 527.039 512.618 527.156 512.795C547.763 520.976 550.46 560.186 542.431 577.208C541.912 578.31 540.374 579.102 538.79 579.374C538.499 580.841 538.494 580.863 538.494 580.863C538.494 580.863 538.096 580.281 537.394 579.456C536.463 579.413 535.62 579.173 535.089 578.626C531.772 575.205 526.288 573.874 521.243 574.468C520.649 574.734 520.053 575.037 519.444 575.417C514.894 578.261 511.554 582.771 509.777 587.155C509.843 587.566 509.859 587.958 509.968 588.39C513.043 600.667 526.027 601.532 536.004 596.685C537.47 595.972 540.758 595.444 541.55 597.415C549.181 616.416 543.871 638.979 536.529 657.405C536.586 657.479 536.651 657.541 536.698 657.626C548.051 677.903 560.477 698.654 572.068 719.976C582.398 720.126 594.234 722.374 603.636 717.157C605.408 716.171 607.302 716.454 608.309 717.295C601.935 695.932 591.501 676.3 586.842 654.306C586.072 654.251 585.552 654.053 585.56 653.68C585.941 638.848 590.399 625.655 603.475 617.499C616.563 609.34 633.906 604.76 640.974 589.667ZM890.325 452.521C905.535 451.234 920.245 448.916 934.695 444.039C934.657 443.968 934.638 443.878 934.6 443.81C934.551 443.726 934.543 443.636 934.556 443.544C934.156 443.171 933.925 442.654 933.969 441.965C935.136 423.762 949.562 411.613 953.16 394.428C956.913 376.493 955.797 358.168 961.128 340.478C961.188 340.274 961.286 340.078 961.406 339.891C961.136 338.707 960.772 337.493 960.189 336.489C960.116 336.595 960.045 336.693 959.958 336.815C957.267 340.647 955.193 344.892 953.253 349.141C949.611 357.112 946.95 366.087 942.234 373.511C941.33 374.931 937.945 375.715 935.969 375.342C924.803 386.584 915.907 402.33 917.316 418.569C917.534 421.078 909.598 422.64 909.43 420.681C908.11 405.468 915.368 390.639 925.323 379.277C912.143 381.947 898.247 388.152 888.801 397.742C886.23 400.357 878.653 398.801 882.158 395.244C893.458 383.765 909.773 376.093 925.543 373.258C927.565 372.893 929.021 373.641 929.693 374.703C930.281 374.27 931.37 373.914 932.551 373.685C928.964 354.651 923.973 334.782 915.79 317.18C913.765 312.829 911.661 307.944 908.189 304.507C902.964 299.344 903.995 311.408 904.373 313.847C906.521 327.715 911.005 341.077 914.598 354.611C915.4 357.631 907.511 359.74 906.711 356.722C906.477 355.843 906.213 354.929 905.935 354.001C905.691 353.821 905.481 353.604 905.35 353.321C901.241 344.367 899.282 334.461 896.337 325.094C894.688 319.85 893.077 314.475 890.696 309.503C890.132 308.325 881.807 294.527 881.01 303.791C879.331 323.225 892.279 342.993 896.908 361.411C897.627 364.263 889.729 366.343 889.022 363.523C887.177 356.184 877.301 336.418 873.752 320.081C873.221 319.959 872.832 319.709 872.693 319.3C872.054 317.175 871.27 315.104 870.345 313.087C869.768 312.633 869.346 312.208 869.009 311.806C868.473 313.294 868.086 314.843 867.83 316.353C866.682 323.203 866.886 329.563 868.541 336.29C868.954 337.977 869.436 339.646 869.942 341.308C873.537 348.147 875.668 357.495 877.38 363.714C877.44 363.937 877.51 364.157 877.567 364.38C877.902 365.57 878.226 366.658 878.539 367.535C878.705 367.992 878.64 368.43 878.444 368.838C878.411 368.909 878.387 368.982 878.338 369.053C877.548 370.3 875.347 371.168 873.474 371.151C872.046 371.312 870.827 371.102 870.652 370.327C870.462 369.475 870.241 368.629 870.018 367.782C868.04 362.013 866.355 356.135 864.156 350.447C862.932 347.279 858.779 333.863 857.454 340.609C855.219 351.979 858.02 364.628 860.556 375.734C866.464 401.639 874.62 430.557 890.325 452.521ZM874.315 529.755C878.841 533.453 888.799 515.805 890.75 509.992C890.649 509.921 890.546 509.851 890.464 509.761C881.026 499.21 864.75 521.942 874.315 529.755ZM862.983 500.386C859.38 502.195 856.109 505.33 854.572 509.119C853.282 512.292 851.083 519.218 854.966 521.686C858.869 524.165 862.932 518.818 864.875 516.072C865.207 515.601 865.683 515.247 866.219 514.981C867.912 512.251 870.247 509.736 872.949 507.673C872.002 507.437 871.248 506.879 871.001 505.891C869.98 501.803 867.542 498.094 862.983 500.386ZM851.752 492.611C849.349 492.738 846.998 493.724 844.813 496.069C842.358 498.709 840.056 501.583 838.97 505.083C837.778 508.912 837.266 521.283 844.873 517.212C844.889 517.204 844.905 517.198 844.921 517.19C844.889 514.169 845.703 510.991 847.028 508.199C849.504 502.982 855.14 497.895 861.049 495.454C859.048 494.306 856.969 493.348 854.885 492.883C853.777 493.141 852.642 493.106 851.752 492.611ZM830.376 509.559C830.642 508.136 831.056 506.754 831.584 505.521C834.817 497.983 840.842 492.956 847.757 490.793C840.967 488.656 833.791 491.274 829.208 497.264C826.095 501.33 823.52 508.803 830.376 509.559ZM860.847 582.607C860.844 582.594 860.85 582.58 860.847 582.567C847.199 587.016 832.882 583.974 820.742 576.441C823.458 593.82 821.877 612.633 818.997 629.53C816.298 645.388 812.373 663.773 802.236 677.081C802.149 677.443 801.915 677.857 801.452 678.333C793.569 686.443 789.96 697.922 787.815 708.805C783.521 730.595 784.185 751.593 786.166 772.861C787.263 773.027 788.21 773.544 788.629 774.551C790.161 778.222 805.627 773.18 807.755 771.911C817.095 766.349 821.406 755.014 825.842 745.568C834.158 727.884 841.395 709.659 847.129 690.969C857.669 656.627 866.489 618.642 860.847 582.607ZM862.875 578.705C862.349 579.037 862.333 579.208 862.875 578.705V578.705ZM878.207 560.384C859.549 552.939 841.035 545.074 822.984 536.833C821.517 537.228 820.048 537.307 819.354 536.719C813.252 531.554 810.281 523.449 805.575 517.152C804.696 515.976 800.345 509.083 798.938 512.512C797.444 516.148 797.321 519.969 798.266 523.792C802.261 539.963 813.68 552.452 819.357 567.74C819.735 567.773 820.053 567.863 820.266 568.045C830.781 577.056 847.548 586.124 861.612 579.66C861.919 579.257 862.412 578.893 863 578.582C863.139 578.449 863.28 578.313 863.479 578.095C863.99 577.529 864.673 576.735 865.242 576.071C867 574.016 868.734 571.937 870.454 569.847C872.084 567.871 873.703 565.89 875.311 563.895C875.654 563.473 875.992 563.046 876.329 562.624C876.386 562.483 876.46 562.341 876.591 562.183C876.795 561.938 877.001 561.677 877.214 561.424C877.325 561.217 877.377 561.111 877.358 561.255C877.589 560.98 877.826 560.714 878.079 560.48C878.109 560.453 878.161 560.417 878.207 560.384ZM915.036 568.649C911.748 564.2 910.194 558.422 911.307 551.453C913.063 540.477 921.532 533.775 931.345 530.784C924.28 527.518 917.047 524.598 909.775 521.828C905.729 520.285 901.674 518.758 897.586 517.332C897.205 517.201 896.389 517 895.548 516.785C892.84 521.594 889.025 526.078 885.421 529.257C880.101 533.954 870.331 538.499 865.419 530.83C864.396 529.232 863.805 527.556 863.549 525.858C859.65 528.239 855.154 529.382 851.009 527.39C847.613 525.76 845.839 523.025 845.196 519.901C840.956 521.52 836.014 522.505 833.024 519.895C831.75 518.785 830.988 517.364 830.544 515.821C825.648 515.688 819.125 514.238 818.064 508.482C817.15 503.507 819.406 498.443 822.524 494.638C823.588 493.34 824.737 492.153 825.953 491.07C811.903 484.381 779.619 467.829 768.442 484.452C764.428 490.414 759.57 503.284 761.57 511.53C762.27 511.538 762.879 511.682 763.282 512.014C766.428 514.613 775.705 516.613 780.389 518.287C783.263 519.31 786.447 520.195 789.516 521.245C789.348 517.724 790.058 514.395 792.36 511.753C806.533 495.476 816.692 522.462 824.968 532.076C825.692 531.978 826.329 531.995 826.742 532.185C855.385 545.346 885.264 557.576 915.036 568.649ZM898.239 512.079C898.242 512.079 898.242 512.077 898.245 512.077C898.218 512.06 898.188 512.044 898.163 512.025C898.196 512.044 898.212 512.063 898.239 512.079ZM937.411 550.234C936.037 549.76 936.252 555.037 936.445 555.535C938.13 559.914 942.315 556.06 943.338 553.529C944.857 549.776 944.416 545.207 940.707 542.856C932.124 537.413 925.676 548.122 927.726 555.788C929.565 562.649 937.643 569.654 945.012 565.392C950.115 562.442 954.692 554.958 953.585 548.674C953.429 548.081 953.277 547.485 953.089 546.908C952.978 546.611 952.872 546.312 952.727 546.024C952.684 545.939 952.7 545.863 952.673 545.781C950.12 538.883 945.216 533.494 937.373 532.343C936.402 532.563 935.49 532.615 934.878 532.4C909.386 535.895 916.367 578.909 942.949 575.731C949.696 574.925 953.008 568.043 954.085 561.051C950.245 566.565 943.869 570.397 937.425 569.221C924.746 566.91 918.427 551.431 928.041 541.827C932.564 537.31 939.724 537.383 944.579 541.22C950.074 545.566 948.651 552.979 944.601 557.668C940.688 562.2 932.834 561.489 932.238 554.836C931.835 550.37 934.894 545.893 939.673 547.539C942.049 548.356 939.128 550.827 937.411 550.234ZM959.836 674.202C961.803 642.01 964.462 609.794 969.094 578.019C970.046 571.51 970.566 563.745 973.628 557.962C961.079 534.89 952.281 509.921 945.216 484.68C942.549 475.147 940.067 465.568 937.751 455.942C937.128 453.36 936.736 450.189 935.944 447.34C921.494 452.089 906.833 454.622 891.705 456.1C891.675 456.152 891.656 456.206 891.624 456.258C894.628 471.381 890.366 486.362 892.386 501.632C892.443 502.081 892.263 502.5 891.945 502.881C893.923 503.51 895.752 504.606 897.344 506.234C898.405 506.403 899.118 506.922 898.944 507.908C898.721 509.151 898.332 510.411 897.877 511.674C902.738 512.303 908.034 515.136 912.225 516.717C921.951 520.38 931.664 524.165 941.023 528.694C941.534 528.939 941.741 529.235 941.757 529.545C942.522 529.336 943.202 529.219 943.624 529.276C957.552 531.137 964.315 545.852 962.015 558.803C959.83 571.118 949.666 579.448 936.962 578.909C934.573 578.808 932.271 578.463 930.066 577.94C928.597 578.49 926.994 578.808 926.175 578.514C919.096 575.989 911.999 573.371 904.901 570.71C912.355 592.786 920.231 614.941 930.376 635.933C936.826 649.285 946.299 666.242 959.836 674.202ZM440.719 486.359C425.591 497.163 410.533 507.951 397.805 521.751C394.441 525.403 402.026 526.579 404.391 524.016C404.508 523.89 404.63 523.779 404.747 523.654C405.953 523.632 407.24 523.354 408.027 522.81C415.655 517.541 423.939 513.538 432.481 510.074L403.784 516.907L440.719 486.359ZM621.902 852.465L623.535 847.27C624.267 842.916 624.683 838.474 624.964 834.071C623.54 818.32 620.139 778.772 620.139 760.479C620.139 750.472 617.591 738.691 614.704 728.535C615.455 747.843 617.112 784.762 619.679 811.717C621.192 827.583 621.755 841.552 621.902 852.465ZM1063.81 1007.32C1066.73 980.415 1067.45 953.389 1070.68 926.523C1074.19 897.322 1078.7 868.219 1083.69 839.239C1087.28 818.388 1089.63 795.209 1097.66 775.452C1098.42 773.582 1090.74 774.456 1089.84 776.682C1082.18 795.525 1079.91 817.506 1076.41 837.38C1071.28 866.472 1066.86 895.714 1063.19 925.026C1059.89 951.429 1059.12 977.968 1056.42 1004.43C1054.66 1021.74 1052.49 1039.01 1050.29 1056.27C1046 1050.36 1040.66 1044.26 1039.65 1042.89C1023.42 1020.83 1007.56 998.469 993.396 975.01C978.075 949.638 967.241 923.211 962.478 893.912C966.201 920.416 969.84 942.808 969.84 942.808L1050.12 1067.99L1043.32 1118.34L1050.48 1118.53C1050.48 1118.52 1050.49 1118.51 1050.49 1118.5C1054.29 1081.37 1059.79 1044.43 1063.81 1007.32ZM1077.42 645.57C1097.33 653.084 1117.96 657.071 1138.46 661.602C1120.82 657.033 1096.85 650.782 1077.42 645.57ZM964.397 663.866C964.397 663.866 957.593 790.412 954.872 812.183C953.568 822.614 956.951 853.042 960.826 881.908C957.019 847.686 959.906 812.738 962.206 778.568C965.551 728.946 967.075 679.291 971.306 629.71C973.037 609.402 974.803 588.989 978.183 568.878C978.339 567.953 978.534 566.611 978.809 565.114C975.231 571.779 972.558 578.139 972.558 578.139L964.397 663.866ZM985.997 553.937C987.137 554.095 988.44 554.732 989.953 556.027C997.707 562.668 1000.41 578.327 999.775 587.966C999.77 588.045 999.794 588.107 999.8 588.181C999.342 588.576 999.095 588.995 999.231 589.403C1006.76 612.029 1031.19 626.338 1054.43 636.426C1029.2 622.403 1010.93 599.366 1006.58 597.192C1001.13 594.47 1001.13 574.06 995.69 555.01C995.072 552.854 994.294 551.515 993.41 550.778C992.781 550.503 992.133 550.264 991.458 550.081C989.801 550.176 987.915 551.67 985.997 553.937ZM1460.42 901.6C1460.34 901.744 1460.41 901.845 1460.7 901.875C1461.05 901.91 1461.35 901.984 1461.69 902.03C1461.87 902.079 1462.06 902.076 1462.23 902.112C1454.12 896.168 1447.45 887.021 1447.45 887.021C1447.45 887.021 1444.25 882.09 1439.34 874.468C1439.53 874.767 1439.72 875.072 1439.91 875.371C1443.87 881.505 1451.34 897.866 1460.42 901.6ZM1478.74 931.925C1478.74 931.925 1479.24 923.72 1477.12 916.44C1477.58 922.071 1475.8 928.61 1472.73 934.752C1469.13 941.964 1462.58 947.698 1457.3 953.652C1448.62 963.439 1440.29 973.53 1432.12 983.738C1402.84 1020.29 1379.85 1062.13 1347.06 1095.75C1341.93 1053.28 1339.92 1010.15 1337.11 967.643C1335.23 939.319 1333.55 910.973 1332.5 882.605C1332.14 872.922 1331.86 863.231 1331.9 853.543C1331.92 850.468 1331.99 847.39 1332.19 844.32C1332.61 837.514 1333.94 842.818 1328.27 841.966C1332.33 842.575 1336.23 836.749 1330.93 835.954C1320.19 834.343 1323.89 860.18 1323.98 865.201C1324.47 894.674 1326.32 924.141 1328.16 953.552C1331.25 1003.1 1333.35 1053.54 1339.74 1102.97C1339.46 1103.23 1339.2 1103.51 1338.92 1103.77C1338.39 1104.27 1338.94 1104.47 1339.94 1104.48C1340.81 1111.16 1341.76 1117.82 1342.81 1124.46C1342.98 1125.57 1343.77 1126.18 1344.78 1126.41L1346.58 1126.46C1347.06 1126.39 1347.55 1126.26 1348.01 1126.07L1342.68 1104.73L1478.74 931.925ZM1194.11 678.741C1186.37 675.163 1178.48 672.286 1170.51 669.81L1195.72 676.112C1195.72 676.112 1193.64 686.47 1190.56 702.869C1188.21 709.229 1186.35 715.897 1184.86 722.657C1185.67 722.112 1186.43 721.516 1187.22 720.953C1186.87 722.847 1186.52 724.79 1186.17 726.766C1185.83 726.97 1185.51 727.207 1185.17 727.408C1184.81 727.626 1184.31 727.789 1183.77 727.906C1181.75 738.248 1180.4 748.649 1179.08 758.296C1177.6 769.07 1176.39 779.882 1175.36 790.714C1170 825.077 1165.43 860.039 1164.42 884.297C1161.7 949.611 1171.22 1024.45 1171.22 1024.45C1171.22 1024.45 1197.07 859.805 1199.8 855.723C1202.52 851.64 1227.01 761.834 1227.01 761.834L1258.31 695.159L1269.19 689.717C1269.19 689.717 1380.77 776.802 1388.93 793.13C1391.12 797.495 1396.33 806.253 1402.77 816.719C1401.52 814.901 1400.28 813.081 1399 811.285C1379.88 784.43 1350.56 764.101 1325.45 743.239C1314.02 733.741 1302.05 724.924 1290.63 715.412C1285.52 711.153 1279.76 706.728 1274.84 701.699C1280.24 722.692 1290.54 742.441 1299.23 762.142C1300.2 764.327 1296.13 766.18 1293.41 765.682C1277.79 773.841 1260.91 779.833 1247.37 791.402C1246.97 791.748 1246.04 792.069 1244.98 792.317C1253.57 812.444 1261.87 832.694 1273.17 851.502C1274.4 853.559 1272.47 855.423 1270.24 856.06C1268.9 860.918 1264.45 867.373 1263.41 869.286C1253.63 887.296 1243.36 905.037 1233.21 922.841C1220.8 944.628 1208.34 966.4 1196.43 988.476C1189.43 1001.48 1180.23 1015.5 1176.43 1029.96C1176.51 1030.24 1176.56 1030.54 1176.64 1030.82C1177.16 1032.71 1174.81 1034.21 1172.52 1034.53C1172.36 1034.55 1172.21 1034.57 1172.06 1034.58C1172 1034.58 1171.93 1034.59 1171.87 1034.59C1171.79 1034.6 1171.72 1034.6 1171.64 1034.6C1169.74 1035.05 1167.62 1034.68 1166.98 1032.98C1156.67 1005.32 1146.98 977.266 1139.73 948.631C1133.67 924.691 1129.69 900.272 1124 876.231C1121.9 867.329 1113.79 851.284 1118.89 842.72C1128.12 827.216 1137.52 811.715 1145.72 795.634C1145.85 795.367 1146.05 795.133 1146.27 794.913C1136.12 782.253 1130.87 764.419 1115.65 756.797C1114.62 756.28 1114.83 755.572 1115.62 754.911C1115.69 754.309 1116.06 753.632 1116.87 752.902C1143.12 729.3 1162.55 697.81 1193.11 679.149C1193.42 678.975 1193.76 678.845 1194.11 678.741ZM1177.43 1008.77C1180.05 1003.74 1182.84 998.812 1185.41 993.992C1195.69 974.73 1206.42 955.713 1217.21 936.728C1227.59 918.467 1238.08 900.269 1248.34 881.938C1251.87 875.619 1255.42 869.302 1258.76 862.877C1259.81 860.844 1260.88 858.814 1261.83 856.727C1263.85 852.266 1261.29 856.074 1266.37 856.202C1262.62 856.106 1262.23 853.162 1263.92 851.472C1253.37 833.178 1245.32 813.677 1237.03 794.276C1235.99 791.827 1239.68 789.99 1242.42 790.433C1257.03 778.791 1274.89 772.744 1291.11 763.728C1281.05 741.002 1268.94 718.199 1264.76 693.483C1247.71 711.227 1238.97 739.181 1231.44 761.513C1219.59 796.644 1210.45 832.68 1202.48 868.87C1194.92 903.2 1188.29 937.762 1182.94 972.509C1181.12 984.312 1178.8 996.556 1177.43 1008.77ZM1189.3 688.718C1164.54 707.049 1146.64 733.561 1124.11 754.443C1138.78 763.116 1143.9 780.595 1154.6 793.176C1155.24 793.919 1154.64 794.752 1153.56 795.424C1153.55 795.751 1153.47 796.107 1153.26 796.516C1145.06 812.596 1135.67 828.108 1126.43 843.604C1125.18 845.708 1125.07 845.887 1125.05 845.855C1125.7 848.456 1126.34 851.055 1126.97 853.657C1129.2 862.771 1131.4 871.888 1133.51 881.026C1138.87 904.24 1142.53 927.854 1148.76 950.858C1153.34 967.747 1158.59 984.426 1164.24 1000.98C1163.74 991.363 1163.68 981.724 1163.33 972.564C1161.99 937.289 1161.89 901.94 1162.99 866.657C1164.16 828.955 1166.22 791.051 1171.9 753.721C1175.12 732.538 1178.44 708.002 1189.3 688.718ZM738.52 1116.98L741.206 1087.42C727.901 993.878 715.861 899.36 690.479 808.389C689.964 806.539 682.086 808.688 682.592 810.501C711.45 913.936 723.062 1021.95 738.893 1127.92L742.599 1127.86L738.52 1116.98ZM785.81 848.446C790.338 901.987 792.564 957.106 783.684 1010.35C779.983 1032.54 774.059 1057.46 759.287 1075.24C764.466 1071.5 769.525 1067.43 772.537 1063.91C780.702 1054.39 791.587 964.582 792.948 944.171C794.309 923.761 790.227 802.658 784.784 774.083C779.341 745.508 788.866 685.637 788.866 685.637L787.946 686.005C777.485 703.781 776.421 728.167 776.132 747.552C775.637 781.102 782.985 815.035 785.81 848.446ZM766.422 711.967C771.049 707.558 773.882 702.042 776.767 696.42C778.165 693.695 779.608 690.928 781.404 688.623L775.259 691.08L765.734 704.687L764.498 705.068C763.244 707.06 761.84 708.954 760.087 710.625C756.737 713.815 764.528 713.774 766.422 711.967ZM623.535 847.267L621.902 852.462C621.91 853.162 621.918 853.853 621.924 854.528C622.577 852.149 623.121 849.733 623.535 847.267ZM366.471 1105.31C382.105 1064.19 390.694 1021.6 388.345 977.506C387.134 954.733 382.456 931.753 374.537 910.377C372.82 905.739 370.822 901.192 368.689 896.712L383.376 959.136C383.376 959.136 382.399 973.603 381.038 992.449C381.057 1006.12 379.961 1019.82 377.944 1033.41C376.39 1052.9 374.844 1070.18 373.851 1076.15C372.61 1083.6 367.124 1096.13 361.526 1107.57C363.491 1107.65 365.907 1106.79 366.471 1105.31ZM356.461 866.219L354.801 862.529C354.801 862.529 387.458 829.872 387.458 824.429C387.458 818.986 440.526 715.573 440.526 715.573L505.839 650.259L531.693 661.145C531.693 661.145 587.482 756.394 597.007 787.69C599.508 795.906 601.628 806.748 603.405 818.268C591.49 764.172 559.399 713.97 532.52 666.517C532.289 685.014 527.586 703.084 521.006 720.319C519.506 724.24 517.838 728.17 515.93 731.912C513.574 736.541 526.672 740.106 528.98 740.822C534.45 742.52 539.808 744.202 545.014 746.496C545.352 745.005 545.686 743.511 546.026 742.017C546.865 738.367 554.955 737.477 554.036 741.489C550.011 759.053 547.02 777.068 541.452 794.216C540.075 798.456 536.531 806.062 540.091 810.267C544.527 815.511 551.178 818.14 556.784 821.866C578.327 836.183 593.746 854.727 608.284 875.328C608.545 872.903 608.744 870.475 608.856 868.048C608.358 867.602 608.05 866.976 608.08 866.126C608.178 863.108 608.173 860.104 608.121 857.108C609.824 874.881 610.619 888.382 610.619 888.382L616.721 868.968C616.666 869.839 616.62 870.712 616.549 871.58C617.287 869.8 618.106 868.059 618.879 866.293L621.497 877.026C621.497 877.026 621.929 870.519 621.948 859.432C634.192 833.519 650.529 809.429 670.008 788.583C650.548 779.001 639.942 758.187 625.287 743.097C624.762 742.556 625.788 741.72 627.241 741.053C627.299 740.629 627.516 740.147 627.995 739.595C636.734 729.515 643.532 717.712 653.176 708.47C639.515 700.072 626.322 690.449 614.44 679.688C608.744 674.528 602.39 668.857 597.363 662.405C602.977 681.201 612.083 698.673 616.897 717.679C620.977 733.784 622.991 750.445 624.259 766.986C625.698 785.752 626.42 804.661 625.522 823.474C625.356 826.925 625.203 830.482 624.972 834.066C623.549 818.314 620.147 778.767 620.147 760.473C620.147 750.467 617.6 738.686 614.712 728.529C614.402 720.545 614.244 715.554 614.244 715.554C614.244 715.554 613.351 716.724 611.482 718.123C608.804 710.119 606.54 704.684 606.54 704.684L592.933 650.256L605.179 655.699C605.179 655.699 632.393 665.224 663.689 680.192C694.986 695.159 711.314 708.767 719.478 710.127C726.015 711.216 740.389 710.563 745.859 710.258C741.677 712.612 737.385 714.626 732.786 715.015C717.44 716.31 704.739 708.63 692.612 699.982C664.44 679.887 633.566 667.216 601.679 654.94C607.702 664.571 617.553 672.765 625.56 679.405C636.41 688.408 647.791 696.814 659.825 704.181C662.527 704.143 665.017 705.974 662.035 708.418C650.877 717.549 643.883 730.864 634.527 741.657C634.426 741.772 634.304 741.875 634.184 741.976C648.493 757.341 659.166 777.749 678.978 786.667C679.261 786.792 678.793 787.225 677.966 787.715C677.911 787.799 677.865 787.881 677.778 787.973C650.51 817 629.421 852.215 617.14 890.118C616.353 892.551 608.513 893.629 609.288 891.237C609.506 890.559 609.751 889.89 609.977 889.215C608.921 889.161 607.944 888.793 607.359 887.936C598.003 874.185 588.744 859.938 577.048 848.01C570.105 840.932 562.567 834.414 554.3 828.919C548.538 825.09 541.46 822.086 536.352 817.37C530.362 811.84 529.782 806.394 532.142 798.674C536.858 783.252 540.303 767.563 543.814 751.846C542.851 752.026 541.933 752.015 541.294 751.702C529.875 746.11 516.861 744.967 506.904 736.604C506.346 736.136 506.569 735.287 506.835 734.759C517.966 712.908 525.251 687.872 524.636 663.199C524.633 663.074 524.663 662.954 524.691 662.835C509.854 673.935 491.832 679.443 476.821 690.462C456.468 705.406 442.806 733.763 433.445 756.72C417.973 794.646 406.856 835.867 378.352 866.592C378.099 866.867 377.735 867.098 377.313 867.291C377.985 867.789 378.181 868.345 378.02 868.892C384.614 879.268 392.444 888.959 396.033 900.903C396.578 902.719 388.721 904.937 388.147 903.015C384.525 890.957 376.575 881.195 369.946 870.704C366.903 868.802 358.717 863.919 356.461 866.219ZM527.649 660.508C527.741 660.483 527.834 660.456 527.932 660.434C527.926 660.38 527.916 660.328 527.921 660.268C527.828 660.347 527.739 660.432 527.649 660.508ZM460.936 503.303L457.409 504.144C457.243 503.227 457.077 502.31 456.952 501.379C456.944 501.308 456.96 501.24 456.963 501.167C448.785 504.04 440.52 506.819 432.484 510.077L403.787 516.91L440.719 486.359C446.183 482.457 451.653 478.554 457.028 474.505C467.753 466.428 477.338 457.058 487.141 447.96L512.21 427.223C512.428 427.074 512.632 426.905 512.852 426.758C512.901 426.687 512.975 426.619 513.027 426.546L513.998 425.743L669.119 429.825L595.64 450.235L606.526 473.367L603.895 474.426C599.325 468.077 596.607 460.721 592.859 453.874C570.473 460.77 548.201 468.02 526.141 475.866C505.458 483.224 484.931 490.989 464.319 498.527C464.602 498.704 464.79 498.943 464.831 499.264C465.75 506.174 467.873 512.716 470.271 519.191L460.936 503.303ZM523.101 472.88C565.414 457.921 608.409 444.915 651.557 432.574C607.255 430.941 562.905 430.908 518.584 429.95C497.936 443.799 482.223 463.347 462.242 478.029C446.314 489.734 429.616 500.53 414.928 513.737C428.143 506.906 442.482 502.416 456.481 497.3C478.693 489.182 500.797 480.767 523.101 472.88ZM474.543 526.435L476.568 525.621C475.85 525.817 475.139 526.032 474.415 526.22L474.543 526.435ZM621.902 852.465C621.752 841.552 621.189 827.583 619.679 811.715C617.112 784.759 615.455 747.84 614.704 728.532C613.637 724.785 612.524 721.258 611.474 718.125C610.78 718.645 609.952 719.192 608.978 719.728C613.117 734.647 614.701 750.437 616.086 765.78C617.855 785.306 618.413 805.004 617.659 824.592C617.371 832.114 617.058 840.175 615.773 847.948C613.041 804.794 595.668 764.128 574.974 725.367C585.86 725.83 597.262 726.614 606.972 721.225C607.696 720.822 608.183 720.401 608.51 719.981C605.595 721.495 601.508 722.817 596.092 722.817C583.391 722.817 568.878 721.002 568.878 721.002L581.579 742.773L603.35 802.644L618.098 863.119C618.31 863 618.5 862.874 618.674 862.738L621.902 852.465ZM621.491 877.028C621.491 877.028 621.924 870.522 621.943 859.435C620.871 861.702 619.88 864.001 618.873 866.295L621.491 877.028ZM619.385 861.914C620.43 859.538 621.235 857.056 621.927 854.528C621.921 853.853 621.913 853.164 621.905 852.462L618.674 862.733C618.99 862.485 619.251 862.216 619.385 861.914ZM614.236 715.556C614.236 715.556 613.343 716.727 611.474 718.125C612.524 721.258 613.637 724.785 614.704 728.532C614.394 720.547 614.236 715.556 614.236 715.556ZM670.308 110.506C669.883 110.375 669.734 110.5 670.308 110.506V110.506ZM867.787 62.4348L820.826 73.9354C832.06 70.9827 843.286 67.9892 854.485 64.9058C855.655 64.5847 860.738 62.5409 865.098 61.7381C867.607 57.5145 869.039 52.7847 868.658 47.516C867.784 35.5364 860.099 25.4944 850.571 18.6364C821.732 -2.12247 780.53 -3.49135 757.436 26.3598C757.39 26.4169 757.328 26.4686 757.27 26.5231C756.985 27.0864 756.144 27.6797 755.137 28.1614C756.693 28.0988 757.872 28.4607 757.474 29.3724C750.097 46.4002 733.202 54.4366 715.791 57.6152C714.792 57.7975 712.196 57.8519 712.462 56.2136C715.823 35.7024 731.901 21.0612 752.554 24.4031C775.545 -1.63263 815.288 -6.82779 846.111 8.7822C859.261 15.4415 875.227 27.4293 876.408 43.6108C876.933 50.8361 874.827 57.0464 871.221 62.413C871.711 62.9709 871.923 63.7601 871.673 64.9249C869.512 74.9315 862.82 84.7803 857.878 93.5541C850.174 107.232 842.127 120.716 833.908 134.089C830.514 139.611 827.401 146.241 823.15 151.262L841.928 108.696L847.447 98.8173C848.878 96.3054 850.31 93.7908 851.709 91.2626C852.307 90.1822 852.892 89.091 853.488 88.0051L867.787 62.4348ZM751.286 29.073C751.226 29.0649 751.153 29.0621 751.095 29.0485C733.804 24.6562 723.928 37.6509 720.749 52.8826C733.3 49.7911 744.276 42.8433 749.629 30.4882C749.874 29.9248 750.497 29.4486 751.286 29.073ZM832.408 171.291C835.13 179.455 816.08 199.866 816.08 199.866L797.03 222.998L765.734 250.212C765.734 250.212 749.405 259.737 728.995 271.983C723.481 275.292 717.372 277.701 711.385 279.464C705.692 281.62 700.009 282.986 694.653 283.024C686.095 284.227 680.01 284.23 680.01 284.23L666.403 273.344L665.143 273.54C668.305 276.999 671.848 280.09 675.748 282.714C675.571 283.136 675.702 283.544 676.349 283.878C676.902 284.164 677.465 284.42 678.031 284.665C677.362 286.154 679.604 286.409 681.825 285.985C701.952 291.455 728.086 275.317 743.331 265.906C766.548 251.573 788.169 233.878 807.752 214.937C816.741 206.242 824.813 196.581 830.395 185.35C832.577 180.96 836.216 170.088 832.596 165.394C831.663 164.183 830.482 163.312 829.105 162.727C827.26 160.054 825.096 156.372 822.663 152.383L821.526 154.957C821.523 154.963 829.687 163.127 832.408 171.291ZM672.011 110.323C671.17 110.476 670.629 110.511 670.308 110.506C670.425 110.544 670.564 110.606 670.713 110.696L673.241 110.076C672.831 110.155 672.425 110.247 672.011 110.323ZM588.48 288.859C605.753 285.604 622.944 281.911 640.103 278.104C645.72 276.857 653.438 276.204 659.991 274.343L561.628 289.672L667.763 111.42L670.441 110.764C668.161 110.114 663.866 111.755 663.782 113.505C662.149 119.081 655.868 126.157 652.619 131.232C643.535 145.427 634.418 159.603 625.38 173.827C605.274 205.461 584.861 237.149 567.232 270.252C565.762 273.012 555.293 289.904 559.127 292.304C565.24 296.125 582.333 290.018 588.48 288.859ZM667.763 111.42L670.441 110.764C670.596 110.808 670.765 110.832 670.898 110.898C670.936 110.911 670.964 110.928 670.999 110.941C671.021 110.952 671.043 110.963 671.062 110.977C671.1 110.993 671.13 111.015 671.165 111.034C671.002 110.892 670.855 110.786 670.713 110.702L673.241 110.081C674.858 109.776 676.472 109.463 678.077 109.121C683.594 107.942 689.096 106.696 694.588 105.419C711.499 101.484 728.369 97.3668 745.217 93.1758C770.447 86.903 795.669 80.5512 820.821 73.9382L867.781 62.4375L853.491 88.0106C855.93 83.5856 858.335 79.136 860.477 74.5641C860.727 74.028 860.986 73.4864 861.239 72.9394C857.113 76.216 852.541 79.0354 848.035 81.4629C846.639 82.214 838.679 83.1175 842.018 81.3159C848.389 77.8842 855.578 73.2469 860.896 67.3687C848.157 70.9228 835.378 74.3409 822.584 77.6883C786.792 87.0608 750.921 96.1693 714.944 104.813C702.565 107.787 690.182 110.819 677.71 113.385C676.379 113.66 673.478 114.593 670.64 115.097C668.645 119.252 665.072 123.408 662.816 126.938C655.242 138.797 647.622 150.627 640.051 162.49C621.453 191.636 602.828 220.826 585.539 250.773C579.217 261.718 572.43 272.816 567.711 284.581C565.724 289.539 563.756 288.668 570.048 287.792C575.799 286.989 581.522 285.979 587.229 284.904C603.775 281.786 620.258 278.297 636.696 274.65C642.773 273.303 648.849 271.948 654.907 270.516C656.034 270.25 659.229 269.275 661.18 268.805C656.815 262.989 653.391 256.444 650.978 249.627C650.67 248.753 652.175 247.784 653.958 247.199C662.639 206.601 704.516 172.11 737.415 151.049C754.334 140.221 774.211 131.205 794.069 127.648C803.706 125.922 812.259 136.253 819.114 146.758C822.375 141.788 826.065 134.732 828.865 130.133C835.179 119.769 841.435 109.36 847.444 98.8146L841.925 108.693L823.148 151.259C822.919 151.531 822.701 151.817 822.464 152.075C822.527 152.181 822.587 152.279 822.652 152.383L821.515 154.957C821.515 154.957 829.679 163.121 832.4 171.286C835.122 179.45 816.072 199.86 816.072 199.86L797.022 222.992L765.726 250.206C765.726 250.206 749.397 259.731 728.987 271.978C723.473 275.287 717.364 277.695 711.377 279.459C726.747 273.641 742.18 262.099 751.444 255.467C771.993 240.758 793.476 224.631 809.799 205.194C812.692 201.752 832.485 174.731 825.624 168.17C824.432 168.268 823.341 168.034 822.796 167.315C822.666 167.144 822.549 166.964 822.421 166.793C814.602 165.522 803.172 172.388 797.046 175.634C784.253 182.414 772.113 190.414 760.743 199.381C731.442 222.492 706.543 250.337 686.848 282.009C689.336 282.73 691.948 283.038 694.643 283.019C686.084 284.221 679.999 284.224 679.999 284.224L666.392 273.338L665.132 273.534C664.903 273.284 664.658 273.047 664.435 272.794C663.053 273.401 661.539 273.894 659.977 274.337L561.615 289.667L667.763 111.42ZM681.642 278.855C705.773 241.014 737.948 207.404 775.936 183.363C781.736 179.692 803.706 165.007 819.147 162.24C813.917 154.808 809.04 147.049 803.259 140.093C799.248 135.271 796.336 131.308 788.967 133.292C785.001 134.362 781.077 135.51 777.226 136.966C760.267 143.372 744.243 151.534 729.683 162.392C701.618 183.325 666.86 213.884 661.126 250.373C661.058 250.805 660.813 251.197 660.467 251.551C665.004 262.33 672.139 271.997 681.642 278.855ZM255.481 929.72C246.476 932.665 237.275 934.943 228.267 937.885C222.903 939.637 228.005 940.538 230.966 939.569C239.971 936.625 249.173 934.347 258.18 931.405C263.544 929.652 258.442 928.754 255.481 929.72ZM284.899 603.723C291.458 596.824 295.747 587.735 298.822 578.822C299.369 577.233 291.741 578.142 291.036 580.185C288.091 588.728 284.036 597.651 277.745 604.27C276.041 606.061 283.577 605.114 284.899 603.723ZM180.827 513.193C182.699 513.334 184.847 512.738 186.403 511.698C194.135 506.541 202.024 501.428 208.716 494.924C210.044 493.631 207.562 493.362 206.792 493.405C205.018 493.511 202.846 494.072 201.529 495.348C195.18 501.523 187.639 506.337 180.299 511.23C179.015 512.093 179.311 513.078 180.827 513.193ZM1438.64 567.071C1440.82 568.492 1443.33 569.343 1445.66 570.486C1447.31 571.297 1449.77 570.598 1451.24 569.722C1452.3 569.09 1453.62 567.566 1451.96 566.747C1447.87 564.739 1444.09 563.688 1441.87 559.397C1440.5 556.765 1432.86 559.358 1433.98 561.508C1435.15 563.764 1436.49 565.669 1438.64 567.071ZM717.971 338.963C716.849 335.759 709.003 337.996 710.084 341.074C713.143 349.81 719.318 355.71 728.013 358.753C730.943 359.779 737.287 355.544 732.701 353.938C725.465 351.408 720.488 346.155 717.971 338.963ZM747.898 592.592C747.846 595.491 747.054 598.283 744.951 600.362C742.841 602.447 739.864 603.334 736.966 603.437C735.758 603.481 733.787 602.719 734.86 601.227C735.676 600.09 737.121 599.527 738.539 599.273C738.716 599.05 739.01 598.647 739.11 598.411C739.764 596.873 739.998 595.284 740.028 593.621C740.057 592.002 743.399 591.147 744.521 591C745.816 590.834 747.931 590.875 747.898 592.592ZM740.071 599.107C739.826 599.116 739.559 599.14 739.301 599.184C739.562 599.14 739.826 599.116 740.071 599.107ZM1093.52 450.54C1093.52 444.191 1093.52 437.839 1093.52 431.49C1093.52 429.977 1085.64 431.183 1085.64 433.602C1085.64 439.951 1085.64 446.303 1085.64 452.652C1085.64 454.165 1093.52 452.96 1093.52 450.54ZM884.972 888.867C874.998 898.71 864.184 906.907 851.175 912.303C846.127 914.399 850.68 917.738 854.46 916.17C868.611 910.3 880.564 901.331 891.419 890.622C894.827 887.258 887.103 886.766 884.972 888.867ZM1496.85 836.839C1498.75 838.749 1506.21 835.821 1504.18 833.791C1503.55 833.162 1502.33 832.011 1502.08 831.537C1501.64 830.737 1501.74 829.69 1501.74 828.816C1501.73 827.189 1498.02 827.774 1497.28 827.97C1495.85 828.353 1493.85 829.208 1493.85 830.928C1493.85 831.848 1493.8 832.792 1494.19 833.649C1494.76 834.909 1495.89 835.881 1496.85 836.839ZM1395.27 706.546C1397.24 706.704 1399.31 705.885 1400.43 704.241C1402.64 701.021 1405.81 699.557 1409.67 699.873C1411.49 700.023 1413.89 699.263 1414.83 697.568C1415.77 695.875 1414.03 694.792 1412.53 694.67C1404.77 694.038 1397.4 697.171 1392.98 703.648C1391.86 705.283 1393.93 706.437 1395.27 706.546Z" fill="#007552"/>
</svg>
