<svg width="171" height="175" viewBox="0 0 171 175" fill="none" xmlns="http://www.w3.org/2000/svg">
<path d="M50.2889 140.539V160.359C50.2889 163.006 50.8863 167.129 48.3893 168.783C46.1304 170.281 42.4847 168.461 41.5535 166.389C41.6002 165.614 41.612 164.848 41.612 164.121V153.448C41.612 151.401 38.4378 151.401 38.4378 153.448C38.4378 157.285 38.969 161.663 38.5749 165.667C38.3132 166 38.2033 166.45 38.3888 166.991C38.3929 167.004 38.3994 167.015 38.4024 167.028C38.3119 167.608 38.1924 168.183 38.0443 168.751C37.2596 171.724 34.3703 172.018 31.9022 171.275C29.7337 170.622 29.1901 167.885 29.4436 165.934C29.4779 165.668 29.4507 165.44 29.3804 165.245C29.4229 164.739 29.444 164.232 29.4436 163.725V153.342C29.4436 151.295 26.2689 151.295 26.2689 153.342V159.638C26.2689 161.957 26.8408 165.052 25.805 167.214C24.6694 169.584 21.0716 169.895 19.0526 168.744C17.1902 167.683 16.555 164.742 16.5331 162.76C16.5315 162.628 16.5148 162.497 16.4835 162.369C16.513 162.16 16.5331 161.944 16.5331 161.716V150.194C16.5331 148.147 13.3589 148.147 13.3589 150.194V162.361C13.3589 163.194 13.3956 161.985 12.5831 162.503C10.9706 163.529 9.13127 163.232 7.54715 162.394C6.5923 161.888 5.80349 161.113 5.07968 160.325C5.01975 160.259 4.95787 160.195 4.89414 160.133V115.034L5.45192 113.784L8.50554 106.939C9.68669 104.293 11.0315 102.082 11.0315 99.1871V98.5289H58.9664C59.8315 98.5289 60.5535 97.8068 60.5535 96.9418V64.3506C60.5535 62.3032 57.3794 62.3032 57.3794 64.3506V95.3547H11.0321V84.6677C11.0321 82.6203 7.85795 82.6203 7.85795 84.6677V96.4207C7.75517 96.7607 7.75517 97.1235 7.85795 97.4636V100.637C7.82781 100.708 7.7959 100.785 7.75159 100.884C7.32852 101.832 6.90546 102.78 6.48358 103.728C4.96741 107.125 2.76464 110.704 1.77671 114.297C1.27683 116.113 1.71999 118.567 1.71999 120.418V159.555C1.71999 162.029 3.45597 163.424 5.43243 164.819C7.44966 166.241 11.1798 166.692 13.756 165.63C15.1268 170.731 19.8869 174.453 25.3926 171.685C25.9927 171.388 26.5505 171.012 27.0512 170.568C27.5364 171.499 28.2013 172.325 29.0076 172.998C29.8139 173.671 30.7455 174.177 31.7486 174.488C32.7517 174.798 33.8064 174.907 34.8518 174.808C35.8972 174.709 36.9126 174.403 37.8393 173.909C39.3484 173.12 40.2524 171.867 40.7972 170.419C42.4965 171.793 44.7584 172.464 47.0385 172.391C51.5469 172.245 53.4643 167.792 53.4643 163.834V140.537C53.4637 138.492 50.2889 138.492 50.2889 140.539V140.539ZM7.88808 100.56C7.94362 100.294 8.03639 100.183 7.88808 100.56V100.56Z" fill="black"/>
<path d="M74.8868 157.788C72.9275 149.26 71.2411 140.618 68.9952 132.162C66.4881 122.719 60.7408 108.652 49.5479 107.577C47.51 107.381 47.5289 110.557 49.5479 110.752C55.9612 111.367 59.858 118.237 62.3704 123.423C63.8682 126.517 65.2201 129.887 65.993 133.251L71.5879 157.598C67.1263 160.835 62.612 157.426 60.1245 153.123C59.1011 151.352 56.3571 152.95 57.384 154.725C61.1254 161.199 68.2064 164.816 74.4791 159.332C74.9104 158.955 75.0091 158.317 74.8868 157.788V157.788ZM34.307 52.7907H14.4857C11.8392 52.7907 7.71547 53.3875 6.06104 50.8917C4.56377 48.6328 6.38306 44.9865 8.45583 44.0553C9.23105 44.102 9.99682 44.1138 10.7236 44.1138H21.3965C23.4438 44.1138 23.4438 40.9396 21.3965 40.9396C17.5594 40.9396 13.181 41.4708 9.17669 41.0773C8.84403 40.8161 8.39439 40.7051 7.85315 40.8906C7.84074 40.8953 7.82951 40.9012 7.81592 40.9054C7.23601 40.8144 6.66098 40.6947 6.09294 40.5467C3.12146 39.7614 2.82603 36.8721 3.56934 34.4046C4.22284 32.2355 6.95915 31.6931 8.91021 31.9448C9.14157 31.9792 9.3778 31.9578 9.59916 31.8822C10.0937 31.9241 10.5995 31.9448 11.1189 31.9448H21.5017C23.5484 31.9448 23.5484 28.7707 21.5017 28.7707H15.2059C12.8868 28.7707 9.79179 29.342 7.6292 28.3062C5.25922 27.1712 4.94961 23.5728 6.10063 21.5544C7.16183 19.692 10.1014 19.0568 12.0844 19.0355C12.225 19.0337 12.3538 19.0148 12.4755 18.9853C12.6847 19.0148 12.8998 19.0355 13.1278 19.0355H24.6498C26.6972 19.0355 26.6972 15.8607 24.6498 15.8607H12.4814C11.6483 15.8607 12.8584 15.898 12.3402 15.0843C11.3145 13.4724 11.6117 11.6331 12.4495 10.0489C12.9541 9.0935 13.7299 8.30469 14.5182 7.58147C14.5991 7.50761 14.6588 7.44853 14.7096 7.39594H59.809L61.0592 7.95372L67.9051 11.0079C70.5498 12.1879 72.762 13.5327 75.6561 13.5327H76.3137V61.4671C76.3137 62.3321 77.0358 63.0547 77.9014 63.0547H110.493C112.54 63.0547 112.54 59.88 110.493 59.88H79.4885V13.5327H90.1767C92.2235 13.5327 92.2235 10.358 90.1767 10.358H78.4225C78.0823 10.2563 77.7199 10.2563 77.3797 10.358H74.2055C74.1352 10.3284 74.0578 10.2965 73.9591 10.2522L71.1147 8.98359C67.7183 7.46801 64.1377 5.26525 60.5458 4.27732C58.7294 3.77744 56.275 4.22061 54.4249 4.22061H15.2881C12.8141 4.22061 11.419 5.95658 10.024 7.93304C8.60178 9.94968 8.15153 13.6804 9.21332 16.2566C4.11293 17.6274 0.39046 22.3869 3.1581 27.8932C3.45503 28.4933 3.83101 29.0509 4.27602 29.5512C3.34473 30.0364 2.51881 30.7014 1.84598 31.5076C1.17314 32.3139 0.666728 33.2455 0.355989 34.2485C0.0452495 35.2516 -0.0636587 36.3063 0.0355612 37.3518C0.134781 38.3972 0.44016 39.4126 0.934056 40.3393C1.72346 41.8484 2.9761 42.7518 4.42314 43.2972C3.05055 44.9971 2.37814 47.2584 2.452 49.5386C2.59736 54.0469 7.05074 55.9643 11.009 55.9643H34.3058C36.3532 55.9649 36.3532 52.7907 34.307 52.7907ZM74.2859 10.3899C74.5512 10.4448 74.6617 10.5382 74.2859 10.3899V10.3899Z" fill="black"/>
<path d="M17.0565 77.3887C25.5852 75.4288 34.2272 73.7424 42.6832 71.4971C52.1259 68.9895 66.1927 63.2427 67.2675 52.0498C67.4637 50.0119 64.2866 50.0308 64.0934 52.0498C63.4771 58.4631 56.6082 62.3599 51.4216 64.8723C48.3289 66.3701 44.9586 67.7215 41.5942 68.4949L17.2462 74.0899C14.0094 69.627 17.4193 65.1128 21.7215 62.6258C23.4929 61.6018 21.8952 58.8584 20.119 59.8848C13.6449 63.6267 10.0293 70.7077 15.5126 76.9804C15.8902 77.4117 16.5283 77.5104 17.0565 77.3887V77.3887ZM120.763 34.9341V15.1133C120.763 12.4668 120.165 8.34315 122.662 6.6893C124.921 5.19145 128.567 7.01192 129.498 9.0841C129.456 9.83927 129.437 10.5955 129.44 11.3519V22.0248C129.44 24.0721 132.614 24.0721 132.614 22.0248C132.614 18.1876 132.082 13.8093 132.477 9.80556C132.738 9.4729 132.849 9.02266 132.663 8.48142C132.659 8.46902 132.652 8.45719 132.649 8.44419C132.739 7.86414 132.859 7.28908 133.007 6.72122C133.792 3.74914 136.682 3.4543 139.149 4.19761C141.318 4.85053 141.861 7.58744 141.608 9.53849C141.573 9.77003 141.595 10.0066 141.671 10.228C141.629 10.7335 141.608 11.2405 141.608 11.7477V22.1305C141.608 24.1779 144.783 24.1779 144.783 22.1305V15.8348C144.783 13.5156 144.211 10.4207 145.246 8.25866C146.383 5.88868 149.98 5.57789 151.999 6.7289C153.861 7.7901 154.496 10.7303 154.518 12.7126C154.52 12.8533 154.54 12.9821 154.569 13.1038C154.536 13.3199 154.519 13.5381 154.518 13.7567V25.2787C154.518 27.326 157.693 27.326 157.693 25.2787V13.1109C157.693 12.2778 157.656 13.4873 158.469 12.9691C160.081 11.9433 161.92 12.2405 163.504 13.0784C164.459 13.5836 165.248 14.3594 165.972 15.147C166.046 15.2274 166.105 15.2876 166.157 15.3391V60.4378C165.972 60.855 165.785 61.2715 165.601 61.6887L162.547 68.5339C161.367 71.1792 160.021 73.3909 160.021 76.2855V76.9438H112.086C111.221 76.9438 110.498 77.6658 110.498 78.5308V111.123C110.498 113.169 113.673 113.169 113.673 111.123V80.1185H160.021V90.8056C160.021 92.853 163.195 92.853 163.195 90.8056V79.0526C163.296 78.7124 163.296 78.3499 163.195 78.0097V74.8361C163.225 74.7652 163.256 74.6884 163.3 74.5891L164.568 71.7453C166.085 68.3484 168.287 64.7683 169.275 61.1764C169.776 59.3601 169.332 56.9062 169.332 55.0556V15.9187C169.332 13.4441 167.595 12.0491 165.62 10.6546C163.604 9.23241 159.872 8.78158 157.296 9.84337C155.925 4.74239 151.165 1.02049 145.659 3.78813C145.059 4.08521 144.502 4.46098 144.001 4.90548C143.516 3.97415 142.851 3.14819 142.045 2.47531C141.239 1.80244 140.307 1.29599 139.304 0.985245C138.301 0.674498 137.246 0.5656 136.201 0.664854C135.155 0.764108 134.14 1.06955 133.213 1.56351C131.704 2.35232 130.8 3.60615 130.255 5.05319C128.556 3.68001 126.294 3.00878 124.013 3.08205C119.505 3.22741 117.588 7.68079 117.588 11.639V34.9353C117.588 36.9815 120.763 36.9814 120.763 34.9341V34.9341ZM163.164 74.9129C163.108 75.1788 163.015 75.2899 163.164 74.9129V74.9129Z" fill="black"/>
<path d="M96.1646 17.6848C98.1233 26.2128 99.8103 34.8549 102.056 43.3108C104.563 52.7535 110.311 66.8209 121.503 67.8957C123.541 68.0913 123.522 64.9154 121.503 64.7216C115.09 64.1059 111.193 57.2364 108.681 52.0498C107.183 48.9566 105.832 45.5862 105.058 42.2218L99.4628 17.8744C103.926 14.6377 108.439 18.047 110.927 22.3497C111.95 24.1211 114.694 22.5234 113.667 20.7478C109.926 14.2737 102.845 10.6575 96.5723 16.1414C96.141 16.5178 96.0423 17.1553 96.1646 17.6848V17.6848Z" fill="black"/>
<path d="M136.11 123.634H155.93C158.577 123.634 162.701 123.038 164.356 125.533C165.852 127.793 164.033 131.439 161.961 132.37C161.206 132.328 160.449 132.308 159.693 132.311H149.02C146.972 132.311 146.972 135.486 149.02 135.486C152.857 135.486 157.235 134.955 161.239 135.348C161.572 135.61 162.022 135.72 162.562 135.534C162.576 135.53 162.587 135.524 162.6 135.52C163.18 135.611 163.755 135.731 164.324 135.878C167.294 136.664 167.589 139.552 166.847 142.02C166.194 144.19 163.458 144.733 161.506 144.48C161.275 144.445 161.038 144.467 160.817 144.543C160.312 144.5 159.805 144.479 159.298 144.48H148.916C146.868 144.48 146.868 147.654 148.916 147.654H155.211C157.53 147.654 160.625 147.082 162.787 148.118C165.157 149.253 165.467 152.851 164.317 154.87C163.255 156.733 160.315 157.368 158.332 157.39C158.2 157.391 158.069 157.408 157.941 157.439C157.725 157.407 157.507 157.391 157.288 157.39H145.767C143.72 157.39 143.72 160.564 145.767 160.564H157.934C158.768 160.564 157.559 160.527 158.077 161.34C159.102 162.952 158.804 164.791 157.968 166.376C157.462 167.331 156.687 168.12 155.898 168.843C155.832 168.903 155.769 168.965 155.707 169.029H110.608L109.357 168.471L102.512 165.417C99.8669 164.237 97.6547 162.891 94.7606 162.891H94.1024V114.957C94.1024 114.092 93.3809 113.369 92.5147 113.369H59.9235C57.8767 113.369 57.8767 116.544 59.9235 116.544H90.9282V162.891H80.24C78.1932 162.891 78.1932 166.066 80.24 166.066H91.9942C92.3343 166.168 92.6969 166.168 93.037 166.066H96.2106C96.2815 166.095 96.3583 166.128 96.4576 166.172L99.302 167.44C102.698 168.956 106.278 171.159 109.871 172.147C111.687 172.646 114.141 172.203 115.991 172.203H155.129C157.603 172.203 158.998 170.467 160.393 168.491C161.815 166.474 162.265 162.743 161.203 160.167C166.304 158.796 170.027 154.036 167.259 148.531C166.961 147.931 166.586 147.373 166.141 146.872C167.073 146.387 167.898 145.722 168.571 144.916C169.244 144.109 169.751 143.178 170.061 142.175C170.372 141.172 170.481 140.117 170.381 139.071C170.282 138.026 169.977 137.011 169.483 136.084C168.693 134.575 167.441 133.671 165.994 133.126C167.366 131.427 168.039 129.164 167.964 126.885C167.819 122.376 163.366 120.459 159.408 120.459H136.111C134.064 120.46 134.064 123.634 136.11 123.634V123.634ZM96.1308 166.036C95.8655 165.98 95.755 165.887 96.1308 166.036V166.036Z" fill="black"/>
<path d="M153.36 99.0363C144.831 100.996 136.189 102.682 127.733 104.928C118.291 107.436 104.223 113.182 103.149 124.375C102.953 126.413 106.129 126.394 106.323 124.375C106.94 117.962 113.808 114.065 118.995 111.553C122.088 110.054 125.458 108.703 128.823 107.93L153.17 102.335C156.407 106.797 152.997 111.312 148.696 113.799C146.923 114.822 148.522 117.565 150.298 116.54C156.772 112.798 160.388 105.717 154.905 99.444C154.526 99.0133 153.888 98.9146 153.36 99.0363V99.0363Z" fill="black"/>
</svg>
