<svg width="173" height="202" viewBox="0 0 173 202" fill="none" xmlns="http://www.w3.org/2000/svg">
<path d="M5.9513 110.776V106.312C5.9513 104.69 4.59773 103.337 2.97589 103.337C1.35406 103.337 0.000488281 104.69 0.000488281 106.312V110.776C0.000488281 112.397 1.35406 113.751 2.97589 113.751C4.59773 113.751 5.9513 112.398 5.9513 110.776Z" fill="black"/>
<path d="M99.1799 168.001H13.1817C10.0761 168.001 5.95081 168.03 5.95081 163.679V117.221C5.95081 113.383 1.68745e-09 113.383 1.68745e-09 117.221V160.913C1.68745e-09 163.768 -0.000945219 166.299 1.41203 168.942C3.25781 172.395 7.24734 173.952 10.9625 173.952H99.1799C103.018 173.952 101.684 167.965 99.1799 168.001V168.001ZM136.868 56.654V121.43C136.868 125.177 142.819 125.177 142.819 121.43V56.654C142.819 52.9073 136.868 52.9073 136.868 56.654ZM99.7749 37.2835H5.95129V33.0818C5.95129 29.4539 4.40724 21.1627 8.80411 19.4904C10.029 19.0246 11.7017 19.2326 12.9883 19.2326H97.89C101.728 19.2326 101.728 13.2813 97.89 13.2813H12.5626C10.7333 13.2813 9.02711 13.2714 7.22235 13.7518C2.77221 14.938 0.000942411 19.3561 0.000942411 23.7812V99.7661C0.000942411 103.603 5.95175 103.603 5.95175 99.7661V43.2338H99.7754C103.613 43.2338 103.613 37.2835 99.7749 37.2835V37.2835ZM127.248 33.5146C126.817 43.0966 112.8 43.0966 112.371 33.5146C112.182 29.3219 115.897 26.2522 119.809 26.0763C124.002 25.8882 127.072 29.6029 127.248 33.5146C127.333 35.4254 130.309 35.4335 130.223 33.5146C129.96 27.6619 125.662 23.3635 119.809 23.1009C113.965 22.8383 109.64 28.056 109.396 33.5146C109.133 39.3598 114.351 43.6831 119.809 43.9283C125.654 44.1918 129.978 38.9732 130.223 33.5146C130.309 31.5958 127.333 31.6038 127.248 33.5146Z" fill="black"/>
<path d="M26.0849 31.6298H19.1421V24.6875H26.0849V31.6298ZM20.9275 29.8453H24.2994V26.4734H20.9275V29.8453ZM37.193 31.6298H30.2507V24.6875H37.193V31.6298ZM32.0357 29.8453H35.4076V26.4734H32.0357V29.8453ZM48.3007 31.6298H41.3584V24.6875H48.3007V31.6298ZM43.1438 29.8453H46.5157V26.4734H43.1438V29.8453ZM152.652 31.7396L141.872 24.6648L145.093 12.288C145.67 10.0735 143.642 8.05941 141.433 8.62847C137.481 9.644 133.529 10.6609 129.577 11.6765L122.379 1.46646C122.034 0.976606 121.615 0.63763 121.163 0.426886C119.939 -0.266638 118.314 -0.199229 117.369 1.25854C117.1 1.55107 116.901 1.90137 116.788 2.28255L111.212 12.3502C106.87 11.1107 102.528 9.86936 98.1858 8.62894C96.0237 8.01085 93.8927 10.1159 94.5258 12.2884L98.0783 24.4682C94.573 26.694 91.0676 28.9184 87.5623 31.1451C85.6892 32.3337 85.5878 35.1158 87.5623 36.2831C91.2576 38.4665 94.9534 40.6498 98.6488 42.8341L94.9228 55.5358C94.2863 57.7045 96.4225 59.8167 98.5828 59.1953L108.503 56.3415V84.2951C108.503 87.0098 111.688 88.0734 113.583 86.3983L120.084 80.653L126.831 86.2003C128.753 87.782 131.91 86.8825 131.91 84.0971V56.5608L141.83 59.5932C144.078 60.2792 145.996 58.0666 145.49 55.9328L142.444 43.0698C145.847 41.0064 149.25 38.9425 152.652 36.8781C154.629 35.6778 154.515 32.9621 152.652 31.7396ZM115.238 17.3623L120.118 8.55162C122.002 11.2229 123.886 13.8961 125.77 16.5693C126.558 17.6862 127.749 18.2911 129.13 17.9366C132.11 17.1695 135.091 16.4034 138.071 15.6372L135.586 25.1863C135.235 26.5309 135.819 27.8005 136.953 28.5454L145.579 34.2068L137.548 39.0779C136.374 39.7899 135.868 41.1156 136.181 42.4381L138.531 52.3629L129.129 49.4888C127.85 49.0984 126.439 49.7344 125.769 50.856L120.391 59.8643L114.841 50.658C114.164 49.5364 112.802 48.9344 111.52 49.2832C110.873 49.2748 110.224 49.4492 109.695 49.8042L102.17 51.9692L105.024 42.2396C105.401 40.9567 104.791 39.5489 103.657 38.8785L94.7573 33.6198C97.5257 31.8627 100.294 30.1051 103.062 28.347C104.18 27.6369 104.813 26.3008 104.429 24.9868L101.761 15.8386L111.878 18.7291C113.136 19.0898 114.598 18.5174 115.238 17.3623V17.3623ZM117.904 74.6537C116.754 75.6692 115.604 76.6861 114.454 77.7026V61.5422C115.581 63.4119 116.708 65.2815 117.835 67.1508C118.993 69.0696 121.82 69.0838 122.973 67.1508L125.959 62.1509V77.8172C124.676 76.763 123.395 75.7074 122.112 74.6541C120.799 73.5726 119.211 73.4981 117.904 74.6537V74.6537Z" fill="black"/>
<path d="M25.7755 84.8748L18.0732 96.5822L14.1836 92.2065C11.6297 89.3334 7.43601 93.5563 9.97578 96.4138L16.3231 103.555C17.6588 105.058 19.9982 104.469 20.9962 102.954L30.914 87.8775C33.0299 84.6617 27.8749 81.6839 25.7755 84.8748V84.8748ZM24.5855 109.273L16.8832 120.98L12.9936 116.605C10.4397 113.731 6.24603 117.955 8.78581 120.812L15.1331 127.953C16.4688 129.456 18.8082 128.868 19.8063 127.351L29.724 112.276C31.8399 109.059 26.6849 106.082 24.5855 109.273V109.273ZM24.5855 133.67C22.0179 137.574 19.4503 141.475 16.8832 145.379L12.9936 141.003C10.4397 138.129 6.24603 142.353 8.78581 145.21L15.1331 152.351C16.4688 153.854 18.8082 153.265 19.8063 151.749L29.724 136.674C31.8399 133.458 26.6849 130.48 24.5855 133.67V133.67ZM37.7874 96.8896H92.2368C96.074 96.8896 96.074 90.9392 92.2368 90.9392H37.7874C33.9497 90.9392 33.9497 96.8896 37.7874 96.8896V96.8896ZM90.5258 122.477H92.8317C94.4536 122.477 95.8072 121.125 95.8072 119.503C95.8072 117.881 94.4536 116.526 92.8317 116.526H90.5258C88.904 116.526 87.5504 117.88 87.5504 119.503C87.5509 121.125 88.904 122.477 90.5258 122.477ZM37.7874 122.477H76.1698C80.0075 122.477 80.0075 116.527 76.1698 116.527H37.7874C33.9497 116.527 33.9497 122.477 37.7874 122.477V122.477ZM37.7874 146.579H92.2368C96.074 146.579 96.074 140.628 92.2368 140.628H37.7874C33.9497 140.628 33.9497 146.579 37.7874 146.579V146.579Z" fill="black"/>
<path d="M132.012 190.969L138.558 200.291C138.99 200.907 139.893 201.324 140.593 200.824L171.736 178.609C172.342 178.177 172.778 177.271 172.269 176.574C169.955 173.401 167.641 170.226 165.327 167.052C164.888 166.451 163.993 166.006 163.291 166.518L132.546 188.933C131.012 190.052 132.494 192.635 134.048 191.502C144.296 184.03 154.545 176.56 164.793 169.088C164.115 168.91 163.436 168.732 162.758 168.554C165.072 171.728 167.386 174.902 169.701 178.075L170.234 176.039C159.853 183.446 149.473 190.85 139.092 198.256L141.127 198.789L134.581 189.467C133.488 187.909 130.906 189.394 132.012 190.969V190.969ZM133.357 183.809C132.008 182.3 130.515 180.846 128.764 179.814C127.581 179.116 126.025 179.533 124.728 179.563C119.326 179.686 111.941 178.8 107.832 175.623C104.3 172.893 101.271 169.464 98.4588 166.022C97.0982 164.357 95.8347 162.616 94.5989 160.858C93.7927 159.709 92.5009 158.339 92.1294 156.98C91.4925 154.65 94.1798 151.189 96.2882 153.907L109.433 170.849C110.26 171.916 112.704 171.714 113.756 171.295C115.442 170.625 115.814 168.023 114.974 166.58C114.109 165.097 112.997 163.768 111.966 162.398L82.1245 122.724C81.1302 121.403 79.9407 120.267 79.8445 118.53C79.7375 116.608 83.1348 115.144 84.2913 116.64L86.5086 119.508L102.84 140.634C104.301 142.524 105.761 144.414 107.222 146.303C108.306 147.706 110.551 146.907 111.633 146.077C113.349 144.764 113.299 142.86 112.365 141.067C111.846 140.07 110.838 139.155 110.142 138.288L105.52 132.538L103.867 130.481C103.536 130.068 103.075 129.076 103.559 130.241C102.645 128.04 105.501 124.446 107.499 126.91L115.145 136.331C116.947 138.551 118.645 141.802 122.004 141.413C124.094 141.172 124.589 138.767 124.468 137.018C124.376 135.695 123.119 134.504 122.361 133.517L115.459 124.53C114.241 122.943 118.455 119.141 119.73 120.869C120.547 121.978 121.365 123.086 122.182 124.195C124.675 127.573 127.167 130.952 129.659 134.332C131.562 136.911 136.761 136.908 136.591 132.822C136.44 129.19 132.586 125.706 130.546 122.924C130.213 122.47 129.88 122.016 129.548 121.562C129.825 121.94 129.632 121.457 129.637 121.071C129.647 120.275 130.236 119.276 130.932 118.908C133.029 117.799 133.717 118.162 134.869 119.71L142.669 130.185C144.246 132.302 146.033 134.371 147.441 136.605C150.317 141.174 151.456 146.954 151.8 152.246C152.157 157.725 152.639 162.785 156.841 166.87L157.142 164.534L131.554 183.577C130.033 184.709 131.514 187.294 133.055 186.146C141.585 179.799 150.114 173.451 158.644 167.104C159.392 166.546 159.691 165.492 158.944 164.767C154.465 160.412 155.146 154.815 154.502 149.191C153.952 144.387 152.566 139.401 150.076 135.214C148.805 133.076 147.054 131.123 145.572 129.132L137.646 118.489C135.449 115.538 133.094 114.617 129.43 116.339C127.541 117.228 126.68 119.618 126.655 121.563C126.637 122.927 127.489 123.761 128.251 124.8L132.201 130.188L133.404 131.827C133.8 132.367 133.585 133.025 133.286 133.518C133.185 133.684 132.386 133.045 132.46 133.146C130.1 129.947 127.741 126.749 125.383 123.55C123.569 121.092 121.457 116.802 117.682 117.747C114.614 118.515 110.272 122.622 112.89 126.031L119.791 135.019C120.726 136.235 121.799 137.019 121.301 138.656C121.204 138.978 119.427 136.91 119.061 136.46L110.757 126.228C108.662 123.646 105.393 121.924 102.392 124.6C99.4253 127.244 100.048 130.451 102.229 133.164C104.77 136.327 107.311 139.489 109.853 142.651C110.247 143.143 109.541 144.478 109.29 144.153L108.79 143.507L106.303 140.288C103.616 136.813 100.929 133.337 98.2419 129.862L86.048 114.087C84.5587 112.16 81.2509 112.931 79.6149 114.071C77.7743 115.354 76.5353 117.172 76.9535 119.502C77.2816 121.327 78.1618 122.374 79.2288 123.793L93.4222 142.663C98.6106 149.562 103.8 156.459 108.988 163.358C109.967 164.658 110.866 166.021 111.923 167.259C113.082 168.615 112.108 168.649 112.232 168.638C111.233 168.733 110.982 168.031 111.574 168.793L111.012 168.068L107.683 163.778L99.5446 153.288C97.4475 150.586 94.6914 149.071 91.3921 151.067C85.9033 154.387 90.9239 160.838 93.235 164.056C96.5315 168.645 100.257 173.019 104.525 176.735C108.416 180.123 113.663 181.619 118.707 182.211C121.393 182.527 124.09 182.633 126.789 182.451C126.999 182.436 127.209 182.417 127.418 182.397C127.133 182.425 128.119 182.922 128.519 183.241C129.511 184.029 130.409 184.97 131.252 185.914C132.534 187.347 134.631 185.236 133.357 183.809V183.809Z" fill="black"/>
<path d="M85.2942 77.8478H14.2814L15.7694 79.3357V51.3666C15.2736 51.8628 14.7776 52.3588 14.2814 52.8546H85.2942L83.8063 51.3666V79.3357C83.8063 81.2537 86.7817 81.2537 86.7817 79.3357V51.3666C86.7817 50.5562 86.1047 49.8796 85.2942 49.8796H14.2814C13.4705 49.8796 12.7939 50.5567 12.7939 51.3666V79.3357C12.7939 80.1462 13.4705 80.8227 14.2814 80.8227H85.2942C87.2126 80.8232 87.2126 77.8478 85.2942 77.8478Z" fill="black"/>
<path d="M22.3151 61.7805H58.0195C59.9384 61.7805 59.9384 58.8051 58.0195 58.8051H22.3151C20.3963 58.8055 20.3963 61.7805 22.3151 61.7805ZM22.3151 71.5992H77.6569C79.5758 71.5992 79.5758 68.6238 77.6569 68.6238H22.3151C20.3963 68.6242 20.3963 71.5992 22.3151 71.5992Z" fill="black"/>
</svg>
