<svg classname="h-10 w-10" viewBox="0 0 192 199" fill="currentColor" xmlns="http://www.w3.org/2000/svg">
<path d="M134.048 46.9013L90.1909 27.4083C88.1279 26.4917 85.875 24.9986 83.6345 25.996C81.5939 26.9052 79.553 27.8139 77.5119 28.7222C68.3201 32.8135 59.1295 36.9066 49.9382 40.998L35.9448 47.2284C34.5714 47.8397 34.1163 48.9508 34.2696 50.0501C34.1163 51.1494 34.5714 52.2617 35.9448 52.8741L42.6085 55.8396V65.4447C40.7216 66.155 39.0983 67.6698 38.9109 70.0276L38.9026 79.4723H50.3449V70.3094L50.3002 70.0872C50.0549 68.8576 49.1407 66.8464 47.1849 65.7158V57.8768C50.0909 59.1694 52.9975 60.4639 55.9022 61.7577V82.7408C55.9022 84.5298 57.3894 86.001 59.1719 86.0104C67.9953 86.0529 77.2178 89.8141 82.6867 96.8209C84.0624 98.5869 86.6802 97.721 87.7789 96.2132C88.0907 95.8317 88.4143 95.4599 88.7491 95.0985C89.8868 93.8666 91.1635 92.7614 92.5251 91.7876C97.7912 88.0175 104.082 86.4225 110.496 86.3376C112.277 86.3146 113.766 84.8687 113.766 83.0679V61.8431L120.052 58.9625C124.718 56.8234 129.383 54.6843 134.049 52.5464C136.17 51.5738 136.208 47.8603 134.048 46.9013V46.9013ZM45.7673 74.8953H43.4797V70.3406C43.5669 69.9068 44.2984 69.6934 44.7346 69.605C45.3795 69.885 45.6659 70.5363 45.7673 70.8357V74.8953V74.8953ZM87.9263 96.0151C88.0182 95.8931 88.0819 95.8147 87.9263 96.0151V96.0151ZM107.227 79.9769C99.1128 80.6989 90.7055 83.7252 84.9407 89.5566C79.0852 83.7611 70.6696 80.3854 62.4392 79.6409V64.6701C68.3396 67.2961 74.2387 69.9221 80.1385 72.5493C82.2151 73.4735 84.7368 75.1475 86.9826 74.1184L92.7332 71.4818L107.227 64.8387L107.227 79.9769V79.9769ZM110.02 56.4026C109.318 56.4898 108.648 56.778 108.138 57.2638L85.2991 67.7323C72.0619 61.839 58.8235 55.9434 45.5852 50.0501C58.8318 44.1533 72.079 38.2565 85.3244 32.3573C98.3819 38.1622 111.439 43.9641 124.496 49.7666C119.671 51.9782 114.845 54.1898 110.02 56.4026ZM43.1525 112.817H125.86C130.077 112.817 130.077 106.279 125.86 106.279H43.1525C38.9356 106.279 38.9356 112.817 43.1525 112.817ZM43.1525 129.489H125.86C130.077 129.489 130.077 122.951 125.86 122.951H43.1525C38.9356 122.951 38.9356 129.489 43.1525 129.489ZM43.3818 147.47H119.094C123.18 147.47 123.18 140.931 119.094 140.931H43.3818C39.2958 140.931 39.2958 147.47 43.3818 147.47Z" fill="currentColor"/>
<path d="M191.57 162.508C191.373 147.886 182.639 134.491 169.004 128.933C163.615 126.736 157.91 125.945 152.341 126.423V48.089H185.359C187.141 48.089 188.627 46.6018 188.627 44.8193V20.6131C188.627 13.6677 184.531 7.25393 178.894 3.33294C175.931 1.27223 172.65 0.500658 169.271 0.209472C168.84 0.024975 168.32 -0.0487123 167.706 0.0332207C167.578 0.0503146 167.449 0.0709405 167.321 0.0909816C165.812 0.0296792 164.293 0.0332207 162.782 0.0332207H37.8913C32.1996 0.0332207 25.5972 4.9604 22.1112 9.01756C18.2692 13.4856 17.9816 18.4499 17.9816 23.9135V160.219H3.27077C1.48887 160.219 0.00110901 161.706 0.00110901 163.488C0.00110901 170.832 -0.188693 176.97 4.39779 183.214C8.78091 189.179 15.4352 191.93 22.6093 191.93H125.696C126.239 192.068 126.734 192.054 127.172 191.93H134.089C140.718 196.596 148.912 199.078 157.095 198.746C176.207 197.97 191.101 181.676 191.557 162.9C191.566 162.773 191.572 162.643 191.57 162.508V162.508ZM152.341 20.0585C152.341 19.5993 152.335 19.1419 152.367 18.6839C152.371 18.6297 152.381 18.5377 152.39 18.4511C152.442 18.1497 152.502 17.8495 152.569 17.551C152.728 16.8419 152.941 16.1015 153.232 15.4443C155.685 9.90762 161.571 7.48677 167.241 6.6415C171.421 6.9038 175.183 8.01491 178.291 11.4101C180.149 13.4372 181.401 16.1198 182.101 18.7646C182.101 18.767 182.102 18.7694 182.103 18.7717C182.095 18.8878 182.09 19.057 182.09 19.3069V41.5515H152.341L152.341 20.0585V20.0585ZM24.5185 22.9986V19.7461C24.5185 15.1596 27.9226 11.8245 31.53 9.49501C33.0626 8.50356 35.0001 7.5239 36.499 6.92797C36.8236 6.80173 37.1511 6.68284 37.481 6.57136H151.882C148.239 9.67303 145.785 13.8805 145.803 19.3063C145.831 27.8109 145.803 36.316 145.803 44.8193V127.587C139.434 129.323 133.646 132.729 129.035 137.453C118.585 148.173 116.477 164.327 122.382 177.794C123.596 180.564 125.179 183.104 127.046 185.39H126.763C120.793 183.1 116.634 178.802 115.268 172.485C114.838 170.502 114.839 168.425 114.984 166.41C115.059 165.348 114.985 165.603 115.283 164.357C115.776 162.299 114.311 160.219 112.131 160.219H24.5185V22.9986ZM37.5435 185.391H19.3308C16.3111 185.391 12.772 182.776 10.7585 180.707C8.91059 178.807 7.71578 176.324 6.97779 173.806C6.79846 173.18 6.65403 172.545 6.54514 171.903C6.54632 171.814 6.53806 171.567 6.53806 171.105V166.757H108.398C108.252 169.447 108.519 172.175 109.08 174.761C109.998 179.001 112.101 182.545 114.961 185.39L37.5435 185.391V185.391ZM158.881 192.064C151.038 193.02 143.517 190.742 137.593 186.286C137.405 186.093 137.192 185.927 136.958 185.794C131.904 181.779 128.092 176.146 126.377 169.573C122.607 155.117 131.11 139.812 144.902 134.608C159.063 129.265 174.78 135.869 181.794 148.984C184.01 153.128 184.969 157.841 185.032 162.507C184.831 177.365 173.785 190.245 158.881 192.064Z" fill="currentColor"/>
<path d="M153.779 181.85V177.232C150.522 177.087 147.363 176.211 145.516 175.142L146.975 169.455C149.015 170.573 151.884 171.593 155.043 171.593C157.813 171.593 159.709 170.525 159.709 168.582C159.709 166.734 158.154 165.568 154.556 164.352C149.358 162.602 145.808 160.172 145.808 155.457C145.808 151.18 148.822 147.827 154.024 146.805V142.188H158.786V146.465C162.043 146.611 164.23 147.291 165.834 148.068L164.424 153.561C163.159 153.027 160.924 151.909 157.425 151.909C154.266 151.909 153.245 153.27 153.245 154.631C153.245 156.235 154.947 157.255 159.078 158.81C164.862 160.853 167.195 163.525 167.195 167.9C167.195 172.225 164.133 175.919 158.542 176.891V181.85H153.779V181.85Z" fill="currentColor"/>
</svg>
