<svg width="191" height="174" viewBox="0 0 191 174" fill="none" xmlns="http://www.w3.org/2000/svg">
<path d="M86.8605 141.25H72.2114V86.4833L86.8605 86.4291V141.25ZM76.0334 137.428H83.0392V90.2652L76.0334 90.2905V137.428ZM113.61 141.25H98.9612V86.4833L113.61 86.4291V141.25ZM102.782 137.428H109.788V90.2652L102.782 90.2905V137.428ZM178.137 23.1757L185.109 21.5674L94.2627 0L2.10938 21.9409L46.059 31.9445L45.6337 65.9029L67.6948 70.3505L62.5937 75.3782L76.0321 73.4678L74.9626 83.7451L93.6278 69.2224L112.291 83.7451L111.222 73.4678L124.66 75.3782L119.559 70.3505L141.62 65.9029L141.192 31.701L174.325 24.0566L174.685 62.3134L168.157 75.7937L176.81 89.5273L184.689 74.2119L178.519 63.7182L178.137 23.1757V23.1757ZM79.5964 76.0372L80.2258 69.9942L71.5845 71.2222L72.3446 70.4726L81.0573 64.2903C82.9936 66.3369 85.8341 67.881 89.1481 68.6054L79.5964 76.0372V76.0372ZM93.4145 66.2382C87.2107 66.2382 82.1626 62.5075 82.1626 57.9212C82.1626 53.3355 87.21 49.6043 93.4145 49.6043C99.619 49.6043 104.666 53.3355 104.666 57.9212C104.666 62.5075 99.619 66.2382 93.4145 66.2382ZM107.027 69.9948L107.656 76.0378L98.0094 68.532C101.035 67.8145 103.647 66.4096 105.507 64.5652L114.942 70.5071L115.669 71.2228L107.027 69.9948ZM137.77 63.7497L116.813 67.9748L107.408 62.0532C108.101 60.7747 108.487 59.381 108.487 57.9212C108.487 51.7772 101.725 46.7797 93.4145 46.7797C85.103 46.7797 78.3413 51.7772 78.3413 57.9212C78.3413 59.2386 78.6538 60.5029 79.2247 61.6766L70.3689 67.9606L49.4827 63.7497L49.8698 32.8118L93.4188 42.7242L137.381 32.5801L137.77 63.7497V63.7497ZM93.4102 39.3578L16.5784 21.87L94.2633 3.37379L170.71 21.5218L93.4102 39.3578V39.3578ZM176.462 82.0943L172.377 75.61L176.379 67.3448L180.471 74.3031L176.462 82.0943Z" fill="black"/>
<path d="M60.1114 141.25H45.4623V71.8281H60.1114V141.25ZM49.2836 137.428H56.2894V75.65H49.2836V137.428ZM140.785 141.25H126.136V71.8281H140.785V141.25ZM129.957 137.428H136.963V75.65H129.957V137.428ZM33.361 151.918H157.556C160.636 151.918 160.636 147.141 157.556 147.141H33.361C30.2813 147.141 30.2813 151.918 33.361 151.918ZM21.579 163.382H169.339C172.419 163.382 172.419 158.605 169.339 158.605H21.579C18.4987 158.605 18.4987 163.382 21.579 163.382ZM3.10863 173.572H187.809C190.889 173.572 190.889 168.795 187.809 168.795H3.10863C0.0288956 168.795 0.0288956 173.572 3.10863 173.572Z" fill="black"/>
</svg>
