<svg width="125" height="175" viewBox="0 0 125 175" fill="none" xmlns="http://www.w3.org/2000/svg">
<path d="M118.705 164.577C118.427 169.6 111.993 168.508 108.552 168.508H15.4929C12.2554 168.508 5.61625 169.541 5.61625 164.574V9.99747C5.61625 5.6234 9.45414 5.61673 12.6388 5.61673H114.562C119.177 5.61673 118.704 10.1069 118.704 13.2269V162.818L118.705 164.577C118.705 168.198 124.322 168.198 124.322 164.577V10.0688C124.322 3.95779 119.637 0 113.734 0H10.7044C4.82461 0 0 3.82171 0 9.99793V164.574C0 169.863 4.5363 174.126 9.75911 174.126H113.617C119.372 174.126 123.991 170.568 124.322 164.577C124.522 160.956 118.904 160.976 118.705 164.577V164.577Z" fill="black"/>
<path d="M80.4893 108.083C80.504 107.947 80.5135 107.806 80.5097 107.658C80.5122 107.517 80.5055 107.377 80.4898 107.237C80.0335 96.9668 71.9314 88.9937 61.599 88.7477C51.1273 88.4984 42.9286 97.5601 42.6884 107.658C42.4391 118.13 51.5007 126.329 61.599 126.569C71.9238 126.815 80.033 118.009 80.4893 108.083ZM48.3056 107.658C48.1295 100.275 54.4799 94.5338 61.599 94.3644C68.9822 94.1889 74.7232 100.539 74.8925 107.658C74.717 115.042 68.9827 120.776 61.599 120.951C54.2158 121.127 48.4749 114.777 48.3056 107.658Z" fill="black"/>
<path d="M69.9514 107.397C72.5757 104.892 68.5979 100.926 65.9794 103.425C63.9108 105.4 61.842 107.375 59.7732 109.349C59.1715 108.748 58.5701 108.146 57.9687 107.544C55.4048 104.981 51.4337 108.952 53.9966 111.516L57.7412 115.261C58.8421 116.362 60.6062 116.317 61.7133 115.261L69.9514 107.397V107.397Z" fill="black"/>
<path d="M97.3513 113.356L94.0615 107.374L96.9764 102.71C97.848 101.315 97.1757 99.7453 95.9687 98.8671L89.5295 94.1838L91.2678 87.8092C91.7626 85.9951 90.3763 84.3238 88.5599 84.2539L80.9012 83.9594L78.9106 77.7032C78.4758 76.3359 76.9368 75.2032 75.4562 75.7417L68.5735 78.2446L63.5848 73.843C62.4377 72.8311 60.7455 72.7107 59.6127 73.843L55.4694 77.9863L47.3673 76.1161C45.8302 75.7617 44.391 76.5733 43.9124 78.0776L41.8828 84.4556L36.1353 85.0027C34.7237 85.1373 33.1785 86.1821 33.3269 87.8111L33.9658 94.8403L28.1578 99.6801C27.2306 100.453 27.0822 102.1 27.7187 103.084L30.9829 108.128L26.9699 115.227C26.2886 116.432 26.5546 118.46 27.9776 119.07L34.3032 121.781L33.7013 129.002C33.5696 130.584 35.081 131.739 36.5097 131.811L40.7448 132.023L31.8378 151.55C30.8835 153.643 32.4439 156.466 35.0092 155.676L42.0208 153.518L43.537 159.331C44.1222 161.575 47.5781 162.225 48.6704 160.002L58.0931 140.821L59.9867 142.596C61.127 143.665 62.8193 143.673 63.9587 142.596L66.033 140.637L74.5266 160.002C75.3287 161.831 78.5829 161.854 79.3764 160.002L81.9079 154.096L90.0599 156.425C91.9201 156.956 94.3745 155.009 93.5143 152.97L84.7496 132.194L89.6807 130.962C91.1589 130.593 91.7484 129.419 91.6761 128.249C91.6945 128.001 91.6831 127.752 91.6423 127.507L90.5076 120.699C92.453 119.532 94.3978 118.365 96.3432 117.198C97.681 116.396 98.0954 114.708 97.3513 113.356V113.356ZM46.7075 149.226C46.3297 147.778 44.7012 146.819 43.253 147.264L39.3956 148.451L44.3116 137.674L45.0361 139.485C45.7541 141.281 47.3835 141.972 49.1614 141.164L52.4079 139.688L47.0595 150.575L46.7075 149.226V149.226ZM57.968 133.008C56.9708 132.074 55.7605 132.026 54.5645 132.569L49.2489 134.985L46.707 128.631C46.216 127.403 45.3668 126.637 43.999 126.569L39.5398 126.346L40.0674 120.015C40.1397 119.143 39.5003 117.944 38.6763 117.59L33.3721 115.317L36.6886 109.45C37.1672 108.603 37.2333 107.457 36.6886 106.615L33.8464 102.223L35.5006 100.844C36.6791 99.8624 38.5131 98.8281 39.31 97.4674C40.0769 96.1586 39.5193 94.1362 39.3918 92.7323L39.1734 90.3311C40.7824 90.1779 42.3909 90.0243 43.9999 89.8716C45.3011 89.7474 46.2988 89.0956 46.7079 87.8097L48.5115 82.1415L55.4579 83.7448C57.7278 84.2686 60.0171 81.8518 61.833 79.7737L65.9797 83.4322C66.6962 84.0645 67.7481 84.5051 68.7124 84.1544L74.4134 82.0816L76.117 87.4357C76.5095 88.6693 77.5314 89.4477 78.825 89.4976L84.9213 89.7322L83.6059 94.5549C83.249 95.8637 83.8623 96.9741 84.8966 97.7267L90.7907 102.014L88.3824 105.867C87.8443 106.729 87.9062 107.836 88.3824 108.702L91.1627 113.757L86.0198 116.842C84.8547 117.541 84.5169 118.741 84.7291 120.014L85.7524 126.155L81.3613 127.253C80.0234 126.92 78.5144 127.448 77.9696 128.543C77.148 129.417 76.7479 130.805 76.2921 131.818L75.2041 134.236L70.1311 131.821C68.9517 131.259 67.7081 131.334 66.7281 132.26L61.9663 136.757L57.968 133.008ZM71.203 138.53L75.1603 140.415C76.4229 141.016 78.3379 140.885 79.003 139.407L80.4197 136.259L85.9689 149.413L81.0696 148.013C79.9749 147.7 78.3826 148.174 77.8978 149.304L76.9249 151.575C75.0171 147.227 73.1098 142.878 71.203 138.53V138.53ZM22.6548 22.8423H101.666C105.289 22.8423 105.289 17.2256 101.666 17.2256H22.6543C19.0324 17.2256 19.0325 22.8423 22.6548 22.8423ZM22.6548 33.3274H101.666C105.289 33.3274 105.289 27.7107 101.666 27.7107H22.6543C19.0324 27.7107 19.0325 33.3274 22.6548 33.3274ZM22.6548 43.8125H101.666C105.289 43.8125 105.289 38.1958 101.666 38.1958H22.6543C19.0324 38.1958 19.0325 43.8125 22.6548 43.8125ZM22.6548 54.2981H101.666C105.289 54.2981 105.289 48.6814 101.666 48.6814H22.6543C19.0324 48.6809 19.0325 54.2981 22.6548 54.2981ZM22.6548 64.7832H101.666C105.289 64.7832 105.289 59.1665 101.666 59.1665H22.6543C19.0324 59.166 19.0325 64.7832 22.6548 64.7832Z" fill="black"/>
<path d="M93.9199 87.251H101.667C105.289 87.251 105.289 81.6338 101.667 81.6338H93.9199C90.2975 81.6338 90.2975 87.251 93.9199 87.251ZM22.655 87.251H29.1847C32.8066 87.251 32.8066 81.6338 29.1847 81.6338H22.655C19.0326 81.6338 19.0326 87.251 22.655 87.251Z" fill="black"/>
<path d="M99.5137 98.4847H101.666C103.197 98.4847 104.475 97.2073 104.475 95.6763C104.475 94.1453 103.197 92.8679 101.666 92.8679H99.5137C97.9827 92.8679 96.7053 94.1453 96.7053 95.6763C96.7053 97.2073 97.9832 98.4847 99.5137 98.4847Z" fill="black"/>
<path d="M22.6548 98.4847H23.7314C25.2624 98.4847 26.5398 97.2073 26.5398 95.6763C26.5398 94.1453 25.2619 92.8679 23.7314 92.8679H22.6548C21.1238 92.8679 19.8464 94.1453 19.8464 95.6763C19.8464 97.2073 21.1238 98.4847 22.6548 98.4847Z" fill="black"/>
<path d="M80.0179 76.0171H101.667C105.289 76.0171 105.289 70.3999 101.667 70.3999H80.0179C76.396 70.3999 76.396 76.0171 80.0179 76.0171Z" fill="black"/>
<path d="M22.655 76.0171H42.7356C46.3575 76.0171 46.3575 70.3999 42.7356 70.3999H22.655C19.0326 70.3999 19.0326 76.0171 22.655 76.0171Z" fill="black"/>
</svg>
