<svg width="159" height="175" viewBox="0 0 159 175" fill="none" xmlns="http://www.w3.org/2000/svg">
<path d="M11.3235 66.632V62.9602C11.3235 61.4778 10.0863 60.241 8.6039 60.241C7.12153 60.241 5.88428 61.4778 5.88428 62.9602V66.632C5.88428 68.1144 7.12153 69.3521 8.6039 69.3521C10.0863 69.3521 11.3235 68.1144 11.3235 66.632ZM130.174 59.0166H82.8946C87.1797 54.9741 91.4644 50.9304 95.7495 46.8871L105.684 52.6621C106.767 53.2927 108.083 53.0775 108.98 52.237L125.298 36.9426C127.862 34.5391 124.008 30.7002 121.452 33.0962L106.676 46.9453C103.362 45.0196 100.049 43.0927 96.735 41.1662C95.6539 40.538 94.3328 40.7482 93.4391 41.592L78.772 55.4324V32.0916C78.772 28.5839 73.3327 28.5839 73.3327 32.0916V61.1961C73.2447 61.6548 73.302 62.113 73.4703 62.5368C73.8201 63.6361 74.8492 64.4567 76.0528 64.4567H130.174C133.681 64.4567 133.681 59.0166 130.174 59.0166V59.0166ZM78.8073 91.09C66.8349 90.805 57.4612 101.165 57.1866 112.711C56.9016 124.683 67.2616 134.057 78.8073 134.331C90.6119 134.613 99.8834 124.544 100.405 113.196C100.422 113.041 100.433 112.881 100.428 112.711C100.431 112.55 100.424 112.39 100.405 112.23C99.8834 100.487 90.6202 91.3708 78.8073 91.09V91.09ZM78.8073 127.91C70.3663 128.111 63.802 120.85 63.6084 112.711C63.4073 104.27 70.6675 97.7058 78.8073 97.5118C87.2483 97.3107 93.8126 104.571 94.0062 112.711C93.8051 121.153 87.2491 127.709 78.8073 127.91Z" fill="black"/>
<path d="M83.8149 107.872L76.7192 114.645C76.0321 113.957 75.344 113.269 74.656 112.582C71.7249 109.65 67.1843 114.191 70.115 117.123L74.396 121.404C75.6548 122.662 77.6723 122.612 78.9374 121.404L88.3564 112.413C91.3564 109.548 86.8092 105.014 83.8149 107.872V107.872Z" fill="black"/>
<path d="M155.467 111.779H150.933C151.412 110.659 151.659 109.455 151.659 108.237V50.1847C151.659 47.9013 151.491 45.8547 150.396 43.7433C148.611 40.3004 145.286 39.4441 141.868 39.2335V16.2305C141.868 12.8727 142.497 8.31385 140.916 5.2257C138.256 0.0299148 133.384 0 128.448 0H26.3035C19.9801 0 16.7628 5.1235 16.7628 10.8473V21.7994C16.5206 22.4756 16.5206 23.215 16.7628 23.8912V39.204C12.4798 39.3768 8.40948 40.2825 6.56191 44.9914C5.16138 48.5619 5.88387 53.2172 5.88387 56.9767C5.88387 60.4845 11.3231 60.4845 11.3231 56.9767V48.5789C11.3231 45.1538 14.0556 44.6216 16.7624 44.5751V107.875C16.7624 109.265 17.0848 110.585 17.644 111.778H14.2019C12.6003 111.391 11.3227 110.461 11.3227 108.232V72.8873C11.3227 69.3795 5.88346 69.3795 5.88346 72.8873V103.315C5.88346 105.396 5.68196 107.611 6.0189 109.677C6.13317 110.395 6.31969 111.099 6.57562 111.779H3.16383C1.68146 111.779 0.444206 113.017 0.444206 114.499C0.444206 120.104 -0.957153 127.577 3.44967 131.874C6.93167 135.269 12.9102 134.353 17.3536 134.353H47.1411L46.9109 137.115C46.7601 138.924 48.4884 140.244 50.122 140.326L54.9643 140.568L44.7808 162.895C43.6894 165.287 45.4734 168.514 48.4066 167.612L56.4234 165.144L58.1567 171.791C58.826 174.356 62.7771 175.099 64.0255 172.558L74.7989 150.628L76.9639 152.658C78.268 153.88 80.2024 153.888 81.5058 152.658L83.8768 150.417L93.5883 172.558C94.5052 174.648 98.2257 174.675 99.133 172.558L102.028 165.805L111.349 168.468C113.475 169.075 116.281 166.849 115.298 164.518L105.277 140.764C107.156 140.295 109.036 139.824 110.914 139.354C112.604 138.932 113.278 137.59 113.196 136.253C113.217 135.97 113.203 135.685 113.157 135.404L112.981 134.353H141.822C146.676 134.353 151.865 135.106 155.664 131.401C158.236 128.894 158.186 125.464 158.186 122.172V114.498C158.186 113.017 156.949 111.779 155.467 111.779V111.779ZM141.868 107.856V44.6624C144.163 44.8514 146.22 45.6142 146.22 48.6425V101.669C146.22 105.067 147.166 110.51 143.545 111.779H140.981C141.544 110.577 141.868 109.247 141.868 107.856V107.856ZM26.188 5.43884H127.98C131.133 5.43884 136.429 4.64946 136.429 9.3899V20.1255H22.202V13.5624C22.202 10.4219 21.5323 5.43884 26.188 5.43884V5.43884ZM22.202 102.657V25.5651H136.429V41.3453C136.367 41.7011 136.367 42.0647 136.429 42.4205V104.768C136.429 108.1 136.487 111.778 131.919 111.778H116.302L119.256 107.053C120.252 105.459 119.483 103.664 118.103 102.659L110.742 97.3054L112.729 90.0169C113.295 87.9429 111.71 86.0326 109.633 85.9524L100.876 85.6154L98.6008 78.4624C98.1035 76.8986 96.3436 75.6036 94.651 76.2206L86.7821 79.0819C84.8806 77.4046 82.9794 75.7266 81.0782 74.0485C79.7666 72.8923 77.8322 72.7543 76.5368 74.0485C74.958 75.6285 73.3789 77.2077 71.7997 78.7865C68.712 78.0731 65.6242 77.3614 62.5365 76.6485C60.7791 76.2434 59.1339 77.1711 58.5867 78.8912L56.2663 86.183C54.0764 86.3915 51.8857 86.6001 49.6954 86.8095C48.0817 86.9628 46.3147 88.1573 46.4842 90.0198C46.7273 92.6991 46.9716 95.3776 47.215 98.0565C45.0019 99.9014 42.7886 101.746 40.5751 103.59C39.5148 104.474 39.3453 106.357 40.0728 107.481L42.8535 111.779H26.1884C21.2697 111.779 22.202 105.925 22.202 102.657V102.657ZM20.074 128.913C16.5571 128.913 12.6385 129.414 9.14568 128.86C5.50954 128.282 5.88387 124.596 5.88387 121.873V117.218H14.1308C17.4304 117.77 21.1692 117.49 24.2723 117.49H41.4056C40.676 118.782 39.9453 120.074 39.2153 121.365C38.4363 122.743 38.7404 125.061 40.3674 125.758C42.7779 126.791 45.1884 127.825 47.5993 128.858L47.5948 128.913H20.074V128.913ZM62.1838 161.779L61.7812 160.236C61.3491 158.581 59.4874 157.484 57.8318 157.994C56.3615 158.447 54.8916 158.899 53.4212 159.351L59.042 147.029L59.8705 149.1C60.6914 151.152 62.554 151.943 64.5872 151.019C65.8249 150.457 67.0617 149.894 68.299 149.331L62.1838 161.779V161.779ZM106.669 160.45L101.068 158.85C99.8161 158.493 97.9955 159.034 97.4413 160.326L96.3283 162.922L89.7872 148.008L94.312 150.163C95.7557 150.85 97.944 150.7 98.7047 149.011C99.2444 147.81 99.7841 146.612 100.324 145.412C102.439 150.425 104.554 155.437 106.669 160.45V160.45ZM105.252 126.836L106.422 133.858C104.749 134.277 103.075 134.695 101.402 135.113C99.8726 134.732 98.1467 135.336 97.5244 136.588C96.5846 137.587 96.1272 139.175 95.6062 140.333C95.192 141.255 94.7765 142.176 94.3623 143.097C92.4291 142.177 90.496 141.256 88.5628 140.335C87.2134 139.693 85.7921 139.779 84.6712 140.838C82.8568 142.551 81.0421 144.266 79.2269 145.979L74.656 141.694C73.516 140.626 72.1325 140.571 70.7648 141.192L64.6874 143.954L61.7812 136.689C61.2199 135.286 60.249 134.41 58.6847 134.331L53.5866 134.077L54.1898 126.839C54.2725 125.841 53.5413 124.471 52.599 124.067L46.5345 121.467L50.326 114.759C50.8732 113.791 50.9488 112.481 50.326 111.518L47.0763 106.496L48.9675 104.92C50.3148 103.797 52.4117 102.615 53.3228 101.059C54.1998 99.563 53.5621 97.2505 53.4163 95.6456L53.1666 92.9006C55.0062 92.7253 56.8451 92.5499 58.6843 92.3755C60.1725 92.2325 61.3126 91.4876 61.7808 90.0173L63.8427 83.5369L71.7847 85.3699C74.3801 85.9686 76.998 83.2049 79.0736 80.8289L83.8141 85.0118C84.6338 85.7347 85.8361 86.2386 86.9388 85.8377C89.1112 85.0475 91.2841 84.2569 93.4566 83.4675L95.4043 89.5889C95.8526 90.9986 97.0212 91.8885 98.5003 91.9463L105.471 92.2143L103.967 97.7287C103.559 99.2252 104.261 100.494 105.443 101.355L112.182 106.257L109.428 110.662C108.813 111.647 108.884 112.913 109.428 113.903C110.489 115.83 111.548 117.756 112.607 119.683C110.647 120.858 108.687 122.035 106.728 123.21C105.396 124.01 105.01 125.382 105.252 126.836V126.836ZM150.779 128.392C149.652 129.114 148.005 128.913 146.717 128.913H112.075L111.86 127.622C114.084 126.288 116.307 124.953 118.531 123.619C120.06 122.701 120.534 120.771 119.684 119.225C119.365 118.647 119.047 118.069 118.73 117.49H142.291C143.043 117.49 143.773 117.389 144.48 117.218H152.747V121.145C152.747 123.753 153.318 126.765 150.779 128.392V128.392Z" fill="black"/>
<path d="M79.0437 14.9579H129.086C132.594 14.9579 132.594 9.51868 129.086 9.51868H79.0437C75.5359 9.51868 75.5359 14.9579 79.0437 14.9579Z" fill="black"/>
<path d="M38.2482 35.8998H68.4366C71.9444 35.8998 71.9444 30.4597 68.4366 30.4597H38.2482C34.7405 30.4601 34.7405 35.8998 38.2482 35.8998V35.8998ZM38.2482 46.2344H68.4366C71.9444 46.2344 71.9444 40.7952 68.4366 40.7952H38.2482C34.7405 40.7956 34.7405 46.2344 38.2482 46.2344V46.2344ZM38.2482 57.1129H68.4366C71.9444 57.1129 71.9444 51.6737 68.4366 51.6737H38.2482C34.7405 51.6737 34.7405 57.1129 38.2482 57.1129V57.1129ZM33.7159 30.6417C33.7159 29.9001 33.0973 29.2819 32.3561 29.2819H26.6447C25.9035 29.2819 25.2849 29.9001 25.2849 30.6417V36.0809C25.2849 36.8217 25.9035 37.4407 26.6447 37.4407H32.3561C32.7574 37.4407 33.062 37.2945 33.2797 37.0751C33.2917 37.0652 33.3021 37.0535 33.3138 37.0431C33.3266 37.0294 33.3403 37.0165 33.3528 37.0016C33.5709 36.7843 33.7163 36.4802 33.7163 36.0805L33.7159 30.6417V30.6417ZM30.9959 34.7211H28.0041V32.0011H30.9959V34.7211ZM33.7159 40.9763C33.7159 40.2356 33.0973 39.6165 32.3561 39.6165H26.6447C25.9035 39.6165 25.2849 40.2356 25.2849 40.9763V46.4156C25.2849 47.1564 25.9035 47.7754 26.6447 47.7754H32.3561C32.7562 47.7754 33.0603 47.63 33.278 47.4114C33.2917 47.4002 33.3042 47.3865 33.3175 47.3745C33.3287 47.3624 33.3412 47.3508 33.3516 47.3379C33.5705 47.1206 33.7163 46.8157 33.7163 46.4152L33.7159 40.9763V40.9763ZM30.9959 45.0558H28.0041V42.3366H30.9959V45.0558ZM33.7159 51.8548C33.7159 51.1141 33.0973 50.4959 32.3561 50.4959H26.6447C25.9035 50.4959 25.2849 51.1141 25.2849 51.8548V57.2949C25.2849 58.0357 25.9035 58.6539 26.6447 58.6539H32.3561C32.7554 58.6539 33.0591 58.5085 33.2768 58.2912C33.2917 58.2787 33.305 58.2646 33.3196 58.2513C33.3295 58.2401 33.3412 58.2293 33.3511 58.2177C33.5705 58.0004 33.7163 57.6954 33.7163 57.2945L33.7159 51.8548V51.8548ZM30.9959 55.9347H28.0041V53.2146H30.9959V55.9347Z" fill="black"/>
<path d="M36.0729 9.79073C36.0729 9.04912 35.4542 8.43091 34.713 8.43091H29.0017C28.2605 8.43091 27.6418 9.04912 27.6418 9.79073V15.23C27.6418 15.9716 28.2605 16.5898 29.0017 16.5898H34.713C35.1131 16.5898 35.4177 16.444 35.635 16.2254C35.6482 16.2146 35.6599 16.2017 35.6728 16.1901C35.6844 16.1772 35.6977 16.1652 35.7085 16.1519C35.927 15.9342 36.0724 15.6297 36.0724 15.2296L36.0729 9.79073V9.79073ZM33.3532 13.8706H30.3615V11.1505H33.3532V13.8706ZM46.7702 9.79073C46.7702 9.04912 46.1516 8.43091 45.4104 8.43091H39.699C38.9578 8.43091 38.3392 9.04912 38.3392 9.79073V15.23C38.3392 15.9716 38.9578 16.5898 39.699 16.5898H45.4104C45.8101 16.5898 46.1142 16.4444 46.3319 16.2263C46.346 16.2142 46.3585 16.2005 46.3722 16.188C46.383 16.1764 46.3951 16.1652 46.4054 16.1531C46.6244 15.9354 46.7706 15.6305 46.7706 15.2296L46.7702 9.79073V9.79073ZM44.0502 13.8706H41.0584V11.1505H44.0502V13.8706ZM57.4676 9.79073C57.4676 9.04912 56.8489 8.43091 56.1078 8.43091H50.3964C49.6552 8.43091 49.0366 9.04912 49.0366 9.79073V15.23C49.0366 15.9716 49.6552 16.5898 50.3964 16.5898H56.1078C56.5079 16.5898 56.812 16.4444 57.0297 16.2258C57.0434 16.2146 57.0558 16.2009 57.0691 16.1889C57.0799 16.1768 57.0924 16.1652 57.1032 16.1523C57.3222 15.935 57.468 15.6305 57.468 15.2296L57.4676 9.79073ZM54.7475 13.8706H51.7558V11.1505H54.7475V13.8706Z" fill="black"/>
</svg>
